{
    "asset" : {
        "generator" : "Khronos glTF Blender I/O v1.4.40",
        "version" : "2.0"
    },
    "scene" : 0,
    "scenes" : [
        {
            "name" : "Scene",
            "nodes" : [
                0
            ]
        }
    ],
    "nodes" : [
        {
            "mesh" : 0,
            "name" : "beanie",
            "rotation" : [
                0.020557519048452377,
                0.5982592701911926,
                -0.027509234845638275,
                0.8005664944648743
            ],
            "scale" : [
                0.3364441394805908,
                0.3364441692829132,
                0.3364441394805908
            ],
            "translation" : [
                -0.10336955636739731,
                0.19492724537849426,
                -0.02640211582183838
            ]
        }
    ],
    "materials" : [
        {
            "doubleSided" : true,
            "name" : "body",
            "normalTexture" : {
                "index" : 0,
                "texCoord" : 0
            },
            "pbrMetallicRoughness" : {
                "baseColorFactor" : [
                    0.800000011920929,
                    0.800000011920929,
                    0.800000011920929,
                    1
                ],
                "metallicFactor" : 0,
                "roughnessFactor" : 0.5
            }
        },
        {
            "doubleSided" : true,
            "name" : "underpeak",
            "normalTexture" : {
                "index" : 1,
                "texCoord" : 0
            },
            "pbrMetallicRoughness" : {
                "baseColorFactor" : [
                    0.800000011920929,
                    0.800000011920929,
                    0.800000011920929,
                    1
                ],
                "metallicFactor" : 0,
                "roughnessFactor" : 0.5
            }
        },
        {
            "doubleSided" : true,
            "name" : "patch",
            "normalTexture" : {
                "index" : 2,
                "texCoord" : 0
            },
            "pbrMetallicRoughness" : {
                "baseColorFactor" : [
                    0.800000011920929,
                    0.800000011920929,
                    0.800000011920929,
                    1
                ],
                "metallicFactor" : 0,
                "roughnessFactor" : 0.5
            }
        },
        {
            "doubleSided" : true,
            "name" : "button",
            "normalTexture" : {
                "index" : 3,
                "texCoord" : 0
            },
            "pbrMetallicRoughness" : {
                "baseColorFactor" : [
                    0.800000011920929,
                    0.800000011920929,
                    0.800000011920929,
                    1
                ],
                "metallicFactor" : 0,
                "roughnessFactor" : 0.5
            }
        }
    ],
    "meshes" : [
        {
            "name" : "beanie.001",
            "primitives" : [
                {
                    "attributes" : {
                        "POSITION" : 0,
                        "NORMAL" : 1,
                        "TEXCOORD_0" : 2,
                        "COLOR_0" : 3
                    },
                    "indices" : 4,
                    "material" : 0
                },
                {
                    "attributes" : {
                        "POSITION" : 5,
                        "NORMAL" : 6,
                        "TEXCOORD_0" : 7,
                        "COLOR_0" : 8
                    },
                    "indices" : 9,
                    "material" : 1
                },
                {
                    "attributes" : {
                        "POSITION" : 10,
                        "NORMAL" : 11,
                        "TEXCOORD_0" : 12,
                        "COLOR_0" : 13
                    },
                    "indices" : 14,
                    "material" : 2
                },
                {
                    "attributes" : {
                        "POSITION" : 15,
                        "NORMAL" : 16,
                        "TEXCOORD_0" : 17,
                        "COLOR_0" : 18
                    },
                    "indices" : 19,
                    "material" : 3
                }
            ]
        }
    ],
    "textures" : [
        {
            "sampler" : 0,
            "source" : 0
        },
        {
            "sampler" : 0,
            "source" : 0
        },
        {
            "sampler" : 0,
            "source" : 0
        },
        {
            "sampler" : 0,
            "source" : 0
        }
    ],
    "images" : [
        {
            "mimeType" : "image/png",
            "name" : "normal",
            "uri" : "normal.png"
        }
    ],
    "accessors" : [
        {
            "bufferView" : 0,
            "componentType" : 5126,
            "count" : 378,
            "max" : [
                3.0781636238098145,
                2.4324228763580322,
                3.351228952407837
            ],
            "min" : [
                -3.138471841812134,
                -1.9792824983596802,
                -2.7570135593414307
            ],
            "type" : "VEC3"
        },
        {
            "bufferView" : 1,
            "componentType" : 5126,
            "count" : 378,
            "type" : "VEC3"
        },
        {
            "bufferView" : 2,
            "componentType" : 5126,
            "count" : 378,
            "type" : "VEC2"
        },
        {
            "bufferView" : 3,
            "componentType" : 5123,
            "count" : 378,
            "normalized" : true,
            "type" : "VEC4"
        },
        {
            "bufferView" : 4,
            "componentType" : 5123,
            "count" : 1920,
            "type" : "SCALAR"
        },
        {
            "bufferView" : 5,
            "componentType" : 5126,
            "count" : 282,
            "max" : [
                3.112358808517456,
                2.2427191734313965,
                3.4533870220184326
            ],
            "min" : [
                -3.1718523502349854,
                -2.3284661769866943,
                -2.6787798404693604
            ],
            "type" : "VEC3"
        },
        {
            "bufferView" : 6,
            "componentType" : 5126,
            "count" : 282,
            "type" : "VEC3"
        },
        {
            "bufferView" : 7,
            "componentType" : 5126,
            "count" : 282,
            "type" : "VEC2"
        },
        {
            "bufferView" : 8,
            "componentType" : 5123,
            "count" : 282,
            "normalized" : true,
            "type" : "VEC4"
        },
        {
            "bufferView" : 9,
            "componentType" : 5123,
            "count" : 1440,
            "type" : "SCALAR"
        },
        {
            "bufferView" : 10,
            "componentType" : 5126,
            "count" : 7,
            "max" : [
                1.806960940361023,
                1.4617562294006348,
                2.259019136428833
            ],
            "min" : [
                0.2889082729816437,
                0.08764434605836868,
                1.2676246166229248
            ],
            "type" : "VEC3"
        },
        {
            "bufferView" : 11,
            "componentType" : 5126,
            "count" : 7,
            "type" : "VEC3"
        },
        {
            "bufferView" : 12,
            "componentType" : 5126,
            "count" : 7,
            "type" : "VEC2"
        },
        {
            "bufferView" : 13,
            "componentType" : 5123,
            "count" : 7,
            "normalized" : true,
            "type" : "VEC4"
        },
        {
            "bufferView" : 14,
            "componentType" : 5123,
            "count" : 18,
            "type" : "SCALAR"
        },
        {
            "bufferView" : 15,
            "componentType" : 5126,
            "count" : 49,
            "max" : [
                0.32375410199165344,
                2.5557913780212402,
                -0.169178307056427
            ],
            "min" : [
                -0.41593852639198303,
                2.199796199798584,
                -0.8774008750915527
            ],
            "type" : "VEC3"
        },
        {
            "bufferView" : 16,
            "componentType" : 5126,
            "count" : 49,
            "type" : "VEC3"
        },
        {
            "bufferView" : 17,
            "componentType" : 5126,
            "count" : 49,
            "type" : "VEC2"
        },
        {
            "bufferView" : 18,
            "componentType" : 5123,
            "count" : 49,
            "normalized" : true,
            "type" : "VEC4"
        },
        {
            "bufferView" : 19,
            "componentType" : 5123,
            "count" : 252,
            "type" : "SCALAR"
        }
    ],
    "bufferViews" : [
        {
            "buffer" : 0,
            "byteLength" : 4536,
            "byteOffset" : 0
        },
        {
            "buffer" : 0,
            "byteLength" : 4536,
            "byteOffset" : 4536
        },
        {
            "buffer" : 0,
            "byteLength" : 3024,
            "byteOffset" : 9072
        },
        {
            "buffer" : 0,
            "byteLength" : 3024,
            "byteOffset" : 12096
        },
        {
            "buffer" : 0,
            "byteLength" : 3840,
            "byteOffset" : 15120
        },
        {
            "buffer" : 0,
            "byteLength" : 3384,
            "byteOffset" : 18960
        },
        {
            "buffer" : 0,
            "byteLength" : 3384,
            "byteOffset" : 22344
        },
        {
            "buffer" : 0,
            "byteLength" : 2256,
            "byteOffset" : 25728
        },
        {
            "buffer" : 0,
            "byteLength" : 2256,
            "byteOffset" : 27984
        },
        {
            "buffer" : 0,
            "byteLength" : 2880,
            "byteOffset" : 30240
        },
        {
            "buffer" : 0,
            "byteLength" : 84,
            "byteOffset" : 33120
        },
        {
            "buffer" : 0,
            "byteLength" : 84,
            "byteOffset" : 33204
        },
        {
            "buffer" : 0,
            "byteLength" : 56,
            "byteOffset" : 33288
        },
        {
            "buffer" : 0,
            "byteLength" : 56,
            "byteOffset" : 33344
        },
        {
            "buffer" : 0,
            "byteLength" : 36,
            "byteOffset" : 33400
        },
        {
            "buffer" : 0,
            "byteLength" : 588,
            "byteOffset" : 33436
        },
        {
            "buffer" : 0,
            "byteLength" : 588,
            "byteOffset" : 34024
        },
        {
            "buffer" : 0,
            "byteLength" : 392,
            "byteOffset" : 34612
        },
        {
            "buffer" : 0,
            "byteLength" : 392,
            "byteOffset" : 35004
        },
        {
            "buffer" : 0,
            "byteLength" : 504,
            "byteOffset" : 35396
        }
    ],
    "samplers" : [
        {
            "magFilter" : 9729,
            "minFilter" : 9986
        }
    ],
    "buffers" : [
        {
            "byteLength" : 35900,
            "uri" : "fugubell.bin"
        }
    ]
}
