{
    "asset" : {
        "generator" : "Khronos glTF Blender I/O v1.4.40",
        "version" : "2.0"
    },
    "scene" : 0,
    "scenes" : [
        {
            "name" : "Scene",
            "nodes" : [
                0,
                1,
                2
            ]
        }
    ],
    "nodes" : [
        {
            "mesh" : 0,
            "name" : "Squidshark",
            "rotation" : [
                0,
                0.7200713753700256,
                0,
                0.6938999891281128
            ],
            "scale" : [
                0.48927444219589233,
                0.48927444219589233,
                0.48927444219589233
            ],
            "translation" : [
                -0.2702702581882477,
                -0.016495032235980034,
                0
            ]
        },
        {
            "name" : "Light",
            "rotation" : [
                0.16907575726509094,
                0.7558803558349609,
                -0.27217137813568115,
                0.570947527885437
            ],
            "translation" : [
                4.076245307922363,
                5.903861999511719,
                -1.0054539442062378
            ]
        },
        {
            "name" : "Camera",
            "rotation" : [
                0.483536034822464,
                0.33687159419059753,
                -0.20870360732078552,
                0.7804827094078064
            ],
            "translation" : [
                7.358891487121582,
                4.958309173583984,
                6.925790786743164
            ]
        }
    ],
    "materials" : [
        {
            "doubleSided" : true,
            "name" : "Tip",
            "normalTexture" : {
                "index" : 0,
                "texCoord" : 0
            },
            "pbrMetallicRoughness" : {
                "baseColorFactor" : [
                    0.800000011920929,
                    0.800000011920929,
                    0.800000011920929,
                    1
                ],
                "metallicFactor" : 0,
                "roughnessFactor" : 0.5
            }
        },
        {
            "doubleSided" : true,
            "name" : "Insole",
            "normalTexture" : {
                "index" : 1,
                "texCoord" : 0
            },
            "pbrMetallicRoughness" : {
                "baseColorFactor" : [
                    0.800000011920929,
                    0.800000011920929,
                    0.800000011920929,
                    1
                ],
                "metallicFactor" : 0,
                "roughnessFactor" : 0.5
            }
        },
        {
            "doubleSided" : true,
            "name" : "Midsole",
            "normalTexture" : {
                "index" : 2,
                "texCoord" : 0
            },
            "pbrMetallicRoughness" : {
                "baseColorFactor" : [
                    0.800000011920929,
                    0.800000011920929,
                    0.800000011920929,
                    1
                ],
                "metallicFactor" : 0,
                "roughnessFactor" : 0.5
            }
        },
        {
            "doubleSided" : true,
            "name" : "Pulltab",
            "normalTexture" : {
                "index" : 3,
                "texCoord" : 0
            },
            "pbrMetallicRoughness" : {
                "baseColorFactor" : [
                    0.800000011920929,
                    0.800000011920929,
                    0.800000011920929,
                    1
                ],
                "metallicFactor" : 0,
                "roughnessFactor" : 0.5
            }
        },
        {
            "doubleSided" : true,
            "name" : "Vamp",
            "normalTexture" : {
                "index" : 4,
                "texCoord" : 0
            },
            "pbrMetallicRoughness" : {
                "baseColorFactor" : [
                    0.800000011920929,
                    0.800000011920929,
                    0.800000011920929,
                    1
                ],
                "metallicFactor" : 0,
                "roughnessFactor" : 0.5
            }
        },
        {
            "doubleSided" : true,
            "name" : "Outsole",
            "normalTexture" : {
                "index" : 5,
                "texCoord" : 0
            },
            "pbrMetallicRoughness" : {
                "baseColorFactor" : [
                    0.800000011920929,
                    0.800000011920929,
                    0.800000011920929,
                    1
                ],
                "metallicFactor" : 0,
                "roughnessFactor" : 0.5
            }
        },
        {
            "doubleSided" : true,
            "name" : "Tongue",
            "normalTexture" : {
                "index" : 6,
                "texCoord" : 0
            },
            "pbrMetallicRoughness" : {
                "baseColorFactor" : [
                    0.800000011920929,
                    0.800000011920929,
                    0.800000011920929,
                    1
                ],
                "metallicFactor" : 0,
                "roughnessFactor" : 0.5
            }
        }
    ],
    "meshes" : [
        {
            "name" : "Squidshark",
            "primitives" : [
                {
                    "attributes" : {
                        "POSITION" : 0,
                        "NORMAL" : 1,
                        "TEXCOORD_0" : 2,
                        "COLOR_0" : 3
                    },
                    "indices" : 4,
                    "material" : 0
                },
                {
                    "attributes" : {
                        "POSITION" : 5,
                        "NORMAL" : 6,
                        "TEXCOORD_0" : 7,
                        "COLOR_0" : 8
                    },
                    "indices" : 9,
                    "material" : 1
                },
                {
                    "attributes" : {
                        "POSITION" : 10,
                        "NORMAL" : 11,
                        "TEXCOORD_0" : 12,
                        "COLOR_0" : 13
                    },
                    "indices" : 14,
                    "material" : 2
                },
                {
                    "attributes" : {
                        "POSITION" : 15,
                        "NORMAL" : 16,
                        "TEXCOORD_0" : 17,
                        "COLOR_0" : 18
                    },
                    "indices" : 19,
                    "material" : 3
                },
                {
                    "attributes" : {
                        "POSITION" : 20,
                        "NORMAL" : 21,
                        "TEXCOORD_0" : 22,
                        "COLOR_0" : 23
                    },
                    "indices" : 24,
                    "material" : 4
                },
                {
                    "attributes" : {
                        "POSITION" : 25,
                        "NORMAL" : 26,
                        "TEXCOORD_0" : 27,
                        "COLOR_0" : 28
                    },
                    "indices" : 29,
                    "material" : 1
                },
                {
                    "attributes" : {
                        "POSITION" : 30,
                        "NORMAL" : 31,
                        "TEXCOORD_0" : 32,
                        "COLOR_0" : 33
                    },
                    "indices" : 34,
                    "material" : 5
                },
                {
                    "attributes" : {
                        "POSITION" : 35,
                        "NORMAL" : 36,
                        "TEXCOORD_0" : 37,
                        "COLOR_0" : 38
                    },
                    "indices" : 39,
                    "material" : 6
                }
            ]
        }
    ],
    "textures" : [
        {
            "sampler" : 0,
            "source" : 0
        },
        {
            "sampler" : 0,
            "source" : 0
        },
        {
            "sampler" : 0,
            "source" : 0
        },
        {
            "sampler" : 0,
            "source" : 0
        },
        {
            "sampler" : 0,
            "source" : 0
        },
        {
            "sampler" : 0,
            "source" : 0
        },
        {
            "sampler" : 0,
            "source" : 0
        }
    ],
    "images" : [
        {
            "mimeType" : "image/png",
            "name" : "normal",
            "uri" : "normal.png"
        }
    ],
    "accessors" : [
        {
            "bufferView" : 0,
            "componentType" : 5126,
            "count" : 158,
            "max" : [
                0.7809066772460938,
                0.7148663401603699,
                2.613886594772339
            ],
            "min" : [
                -0.8072332739830017,
                -0.6842958927154541,
                -1.2993851900100708
            ],
            "type" : "VEC3"
        },
        {
            "bufferView" : 1,
            "componentType" : 5126,
            "count" : 158,
            "type" : "VEC3"
        },
        {
            "bufferView" : 2,
            "componentType" : 5126,
            "count" : 158,
            "type" : "VEC2"
        },
        {
            "bufferView" : 3,
            "componentType" : 5123,
            "count" : 158,
            "normalized" : true,
            "type" : "VEC4"
        },
        {
            "bufferView" : 4,
            "componentType" : 5123,
            "count" : 456,
            "type" : "SCALAR"
        },
        {
            "bufferView" : 5,
            "componentType" : 5126,
            "count" : 121,
            "max" : [
                0.7626847624778748,
                0.3737330436706543,
                0.8476967811584473
            ],
            "min" : [
                -0.685137152671814,
                -0.6842958927154541,
                -1.4149411916732788
            ],
            "type" : "VEC3"
        },
        {
            "bufferView" : 6,
            "componentType" : 5126,
            "count" : 121,
            "type" : "VEC3"
        },
        {
            "bufferView" : 7,
            "componentType" : 5126,
            "count" : 121,
            "type" : "VEC2"
        },
        {
            "bufferView" : 8,
            "componentType" : 5123,
            "count" : 121,
            "normalized" : true,
            "type" : "VEC4"
        },
        {
            "bufferView" : 9,
            "componentType" : 5123,
            "count" : 396,
            "type" : "SCALAR"
        },
        {
            "bufferView" : 10,
            "componentType" : 5126,
            "count" : 66,
            "max" : [
                0.7996391654014587,
                -0.3495539426803589,
                2.5303337574005127
            ],
            "min" : [
                -0.8099011778831482,
                -0.9579899311065674,
                -1.4560662508010864
            ],
            "type" : "VEC3"
        },
        {
            "bufferView" : 11,
            "componentType" : 5126,
            "count" : 66,
            "type" : "VEC3"
        },
        {
            "bufferView" : 12,
            "componentType" : 5126,
            "count" : 66,
            "type" : "VEC2"
        },
        {
            "bufferView" : 13,
            "componentType" : 5123,
            "count" : 66,
            "normalized" : true,
            "type" : "VEC4"
        },
        {
            "bufferView" : 14,
            "componentType" : 5123,
            "count" : 204,
            "type" : "SCALAR"
        },
        {
            "bufferView" : 15,
            "componentType" : 5126,
            "count" : 128,
            "max" : [
                0.09715785086154938,
                0.8268583416938782,
                -1.0004690885543823
            ],
            "min" : [
                -0.12378925085067749,
                -0.35233592987060547,
                -1.317432165145874
            ],
            "type" : "VEC3"
        },
        {
            "bufferView" : 16,
            "componentType" : 5126,
            "count" : 128,
            "type" : "VEC3"
        },
        {
            "bufferView" : 17,
            "componentType" : 5126,
            "count" : 128,
            "type" : "VEC2"
        },
        {
            "bufferView" : 18,
            "componentType" : 5123,
            "count" : 128,
            "normalized" : true,
            "type" : "VEC4"
        },
        {
            "bufferView" : 19,
            "componentType" : 5123,
            "count" : 252,
            "type" : "SCALAR"
        },
        {
            "bufferView" : 20,
            "componentType" : 5126,
            "count" : 28,
            "max" : [
                0.7430603504180908,
                -0.05562591552734375,
                2.355644702911377
            ],
            "min" : [
                -0.7168539762496948,
                -0.36708998680114746,
                1.2020667791366577
            ],
            "type" : "VEC3"
        },
        {
            "bufferView" : 21,
            "componentType" : 5126,
            "count" : 28,
            "type" : "VEC3"
        },
        {
            "bufferView" : 22,
            "componentType" : 5126,
            "count" : 28,
            "type" : "VEC2"
        },
        {
            "bufferView" : 23,
            "componentType" : 5123,
            "count" : 28,
            "normalized" : true,
            "type" : "VEC4"
        },
        {
            "bufferView" : 24,
            "componentType" : 5123,
            "count" : 93,
            "type" : "SCALAR"
        },
        {
            "bufferView" : 25,
            "componentType" : 5126,
            "count" : 99,
            "max" : [
                0.4410625398159027,
                0.735649049282074,
                0.17683379352092743
            ],
            "min" : [
                -0.49775394797325134,
                -0.04465198516845703,
                -1.1494344472885132
            ],
            "type" : "VEC3"
        },
        {
            "bufferView" : 26,
            "componentType" : 5126,
            "count" : 99,
            "type" : "VEC3"
        },
        {
            "bufferView" : 27,
            "componentType" : 5126,
            "count" : 99,
            "type" : "VEC2"
        },
        {
            "bufferView" : 28,
            "componentType" : 5123,
            "count" : 99,
            "normalized" : true,
            "type" : "VEC4"
        },
        {
            "bufferView" : 29,
            "componentType" : 5123,
            "count" : 372,
            "type" : "SCALAR"
        },
        {
            "bufferView" : 30,
            "componentType" : 5126,
            "count" : 73,
            "max" : [
                0.7996391654014587,
                -0.2340528964996338,
                2.6610066890716553
            ],
            "min" : [
                -0.8099011778831482,
                -1.015084981918335,
                -1.4560662508010864
            ],
            "type" : "VEC3"
        },
        {
            "bufferView" : 31,
            "componentType" : 5126,
            "count" : 73,
            "type" : "VEC3"
        },
        {
            "bufferView" : 32,
            "componentType" : 5126,
            "count" : 73,
            "type" : "VEC2"
        },
        {
            "bufferView" : 33,
            "componentType" : 5123,
            "count" : 73,
            "normalized" : true,
            "type" : "VEC4"
        },
        {
            "bufferView" : 34,
            "componentType" : 5123,
            "count" : 336,
            "type" : "SCALAR"
        },
        {
            "bufferView" : 35,
            "componentType" : 5126,
            "count" : 95,
            "max" : [
                0.615188479423523,
                0.937912106513977,
                1.6012217998504639
            ],
            "min" : [
                -0.5189350247383118,
                -0.13329195976257324,
                0.14437027275562286
            ],
            "type" : "VEC3"
        },
        {
            "bufferView" : 36,
            "componentType" : 5126,
            "count" : 95,
            "type" : "VEC3"
        },
        {
            "bufferView" : 37,
            "componentType" : 5126,
            "count" : 95,
            "type" : "VEC2"
        },
        {
            "bufferView" : 38,
            "componentType" : 5123,
            "count" : 95,
            "normalized" : true,
            "type" : "VEC4"
        },
        {
            "bufferView" : 39,
            "componentType" : 5123,
            "count" : 435,
            "type" : "SCALAR"
        }
    ],
    "bufferViews" : [
        {
            "buffer" : 0,
            "byteLength" : 1896,
            "byteOffset" : 0
        },
        {
            "buffer" : 0,
            "byteLength" : 1896,
            "byteOffset" : 1896
        },
        {
            "buffer" : 0,
            "byteLength" : 1264,
            "byteOffset" : 3792
        },
        {
            "buffer" : 0,
            "byteLength" : 1264,
            "byteOffset" : 5056
        },
        {
            "buffer" : 0,
            "byteLength" : 912,
            "byteOffset" : 6320
        },
        {
            "buffer" : 0,
            "byteLength" : 1452,
            "byteOffset" : 7232
        },
        {
            "buffer" : 0,
            "byteLength" : 1452,
            "byteOffset" : 8684
        },
        {
            "buffer" : 0,
            "byteLength" : 968,
            "byteOffset" : 10136
        },
        {
            "buffer" : 0,
            "byteLength" : 968,
            "byteOffset" : 11104
        },
        {
            "buffer" : 0,
            "byteLength" : 792,
            "byteOffset" : 12072
        },
        {
            "buffer" : 0,
            "byteLength" : 792,
            "byteOffset" : 12864
        },
        {
            "buffer" : 0,
            "byteLength" : 792,
            "byteOffset" : 13656
        },
        {
            "buffer" : 0,
            "byteLength" : 528,
            "byteOffset" : 14448
        },
        {
            "buffer" : 0,
            "byteLength" : 528,
            "byteOffset" : 14976
        },
        {
            "buffer" : 0,
            "byteLength" : 408,
            "byteOffset" : 15504
        },
        {
            "buffer" : 0,
            "byteLength" : 1536,
            "byteOffset" : 15912
        },
        {
            "buffer" : 0,
            "byteLength" : 1536,
            "byteOffset" : 17448
        },
        {
            "buffer" : 0,
            "byteLength" : 1024,
            "byteOffset" : 18984
        },
        {
            "buffer" : 0,
            "byteLength" : 1024,
            "byteOffset" : 20008
        },
        {
            "buffer" : 0,
            "byteLength" : 504,
            "byteOffset" : 21032
        },
        {
            "buffer" : 0,
            "byteLength" : 336,
            "byteOffset" : 21536
        },
        {
            "buffer" : 0,
            "byteLength" : 336,
            "byteOffset" : 21872
        },
        {
            "buffer" : 0,
            "byteLength" : 224,
            "byteOffset" : 22208
        },
        {
            "buffer" : 0,
            "byteLength" : 224,
            "byteOffset" : 22432
        },
        {
            "buffer" : 0,
            "byteLength" : 186,
            "byteOffset" : 22656
        },
        {
            "buffer" : 0,
            "byteLength" : 1188,
            "byteOffset" : 22844
        },
        {
            "buffer" : 0,
            "byteLength" : 1188,
            "byteOffset" : 24032
        },
        {
            "buffer" : 0,
            "byteLength" : 792,
            "byteOffset" : 25220
        },
        {
            "buffer" : 0,
            "byteLength" : 792,
            "byteOffset" : 26012
        },
        {
            "buffer" : 0,
            "byteLength" : 744,
            "byteOffset" : 26804
        },
        {
            "buffer" : 0,
            "byteLength" : 876,
            "byteOffset" : 27548
        },
        {
            "buffer" : 0,
            "byteLength" : 876,
            "byteOffset" : 28424
        },
        {
            "buffer" : 0,
            "byteLength" : 584,
            "byteOffset" : 29300
        },
        {
            "buffer" : 0,
            "byteLength" : 584,
            "byteOffset" : 29884
        },
        {
            "buffer" : 0,
            "byteLength" : 672,
            "byteOffset" : 30468
        },
        {
            "buffer" : 0,
            "byteLength" : 1140,
            "byteOffset" : 31140
        },
        {
            "buffer" : 0,
            "byteLength" : 1140,
            "byteOffset" : 32280
        },
        {
            "buffer" : 0,
            "byteLength" : 760,
            "byteOffset" : 33420
        },
        {
            "buffer" : 0,
            "byteLength" : 760,
            "byteOffset" : 34180
        },
        {
            "buffer" : 0,
            "byteLength" : 870,
            "byteOffset" : 34940
        }
    ],
    "samplers" : [
        {
            "magFilter" : 9729,
            "minFilter" : 9986
        }
    ],
    "buffers" : [
        {
            "byteLength" : 35812,
            "uri" : "squidshark.bin"
        }
    ]
}
