{
    "asset" : {
        "generator" : "Khronos glTF Blender I/O v1.4.40",
        "version" : "2.0"
    },
    "scene" : 0,
    "scenes" : [
        {
            "name" : "Scene",
            "nodes" : [
                0
            ]
        }
    ],
    "nodes" : [
        {
            "mesh" : 0,
            "name" : "Sandals",
            "rotation" : [
                0,
                0.6767209768295288,
                0,
                0.7362396717071533
            ],
            "scale" : [
                -0.5747519731521606,
                0.5747519135475159,
                0.5747519731521606
            ],
            "translation" : [
                0.20088112354278564,
                -0.24120201170444489,
                0
            ]
        }
    ],
    "materials" : [
        {
            "doubleSided" : true,
            "name" : "Footbed",
            "normalTexture" : {
                "index" : 0,
                "texCoord" : 0
            },
            "pbrMetallicRoughness" : {
                "baseColorFactor" : [
                    0.800000011920929,
                    0.800000011920929,
                    0.800000011920929,
                    1
                ],
                "metallicFactor" : 0,
                "roughnessFactor" : 0.5
            }
        },
        {
            "doubleSided" : true,
            "name" : "Outsole",
            "normalTexture" : {
                "index" : 1,
                "texCoord" : 0
            },
            "pbrMetallicRoughness" : {
                "baseColorFactor" : [
                    0.800000011920929,
                    0.800000011920929,
                    0.800000011920929,
                    1
                ],
                "metallicFactor" : 0,
                "roughnessFactor" : 0.5
            }
        },
        {
            "doubleSided" : true,
            "name" : "Midsole",
            "normalTexture" : {
                "index" : 2,
                "texCoord" : 0
            },
            "pbrMetallicRoughness" : {
                "baseColorFactor" : [
                    0.800000011920929,
                    0.800000011920929,
                    0.800000011920929,
                    1
                ],
                "metallicFactor" : 0,
                "roughnessFactor" : 0.5
            }
        },
        {
            "doubleSided" : true,
            "name" : "Strap",
            "normalTexture" : {
                "index" : 3,
                "texCoord" : 0
            },
            "pbrMetallicRoughness" : {
                "baseColorFactor" : [
                    0.800000011920929,
                    0.800000011920929,
                    0.800000011920929,
                    1
                ],
                "metallicFactor" : 0,
                "roughnessFactor" : 0.5
            }
        }
    ],
    "meshes" : [
        {
            "name" : "Sandals",
            "primitives" : [
                {
                    "attributes" : {
                        "POSITION" : 0,
                        "NORMAL" : 1,
                        "TEXCOORD_0" : 2,
                        "TEXCOORD_1" : 3,
                        "COLOR_0" : 4
                    },
                    "indices" : 5,
                    "material" : 0
                },
                {
                    "attributes" : {
                        "POSITION" : 6,
                        "NORMAL" : 7,
                        "TEXCOORD_0" : 8,
                        "TEXCOORD_1" : 9,
                        "COLOR_0" : 10
                    },
                    "indices" : 11,
                    "material" : 1
                },
                {
                    "attributes" : {
                        "POSITION" : 12,
                        "NORMAL" : 13,
                        "TEXCOORD_0" : 14,
                        "TEXCOORD_1" : 15,
                        "COLOR_0" : 16
                    },
                    "indices" : 17,
                    "material" : 2
                },
                {
                    "attributes" : {
                        "POSITION" : 18,
                        "NORMAL" : 19,
                        "TEXCOORD_0" : 20,
                        "TEXCOORD_1" : 21,
                        "COLOR_0" : 22
                    },
                    "indices" : 23,
                    "material" : 3
                }
            ]
        }
    ],
    "textures" : [
        {
            "sampler" : 0,
            "source" : 0
        },
        {
            "sampler" : 0,
            "source" : 0
        },
        {
            "sampler" : 0,
            "source" : 0
        },
        {
            "sampler" : 0,
            "source" : 0
        }
    ],
    "images" : [
        {
            "mimeType" : "image/png",
            "name" : "normal",
            "uri" : "normal.png"
        }
    ],
    "accessors" : [
        {
            "bufferView" : 0,
            "componentType" : 5126,
            "count" : 63,
            "max" : [
                0.8777341842651367,
                0.18930315971374512,
                1.6177425384521484
            ],
            "min" : [
                -0.8501224517822266,
                -0.07797574996948242,
                -2.341188430786133
            ],
            "type" : "VEC3"
        },
        {
            "bufferView" : 1,
            "componentType" : 5126,
            "count" : 63,
            "type" : "VEC3"
        },
        {
            "bufferView" : 2,
            "componentType" : 5126,
            "count" : 63,
            "type" : "VEC2"
        },
        {
            "bufferView" : 3,
            "componentType" : 5126,
            "count" : 63,
            "type" : "VEC2"
        },
        {
            "bufferView" : 4,
            "componentType" : 5123,
            "count" : 63,
            "normalized" : true,
            "type" : "VEC4"
        },
        {
            "bufferView" : 5,
            "componentType" : 5123,
            "count" : 300,
            "type" : "SCALAR"
        },
        {
            "bufferView" : 6,
            "componentType" : 5126,
            "count" : 30,
            "max" : [
                0.846472978591919,
                -0.21371302008628845,
                1.591821312904358
            ],
            "min" : [
                -0.8196168541908264,
                -0.4504319131374359,
                -2.315129518508911
            ],
            "type" : "VEC3"
        },
        {
            "bufferView" : 7,
            "componentType" : 5126,
            "count" : 30,
            "type" : "VEC3"
        },
        {
            "bufferView" : 8,
            "componentType" : 5126,
            "count" : 30,
            "type" : "VEC2"
        },
        {
            "bufferView" : 9,
            "componentType" : 5126,
            "count" : 30,
            "type" : "VEC2"
        },
        {
            "bufferView" : 10,
            "componentType" : 5123,
            "count" : 30,
            "normalized" : true,
            "type" : "VEC4"
        },
        {
            "bufferView" : 11,
            "componentType" : 5123,
            "count" : 66,
            "type" : "SCALAR"
        },
        {
            "bufferView" : 12,
            "componentType" : 5126,
            "count" : 78,
            "max" : [
                0.8980600833892822,
                0.17084601521492004,
                1.6643141508102417
            ],
            "min" : [
                -0.8704484701156616,
                -0.4504319131374359,
                -2.3877596855163574
            ],
            "type" : "VEC3"
        },
        {
            "bufferView" : 13,
            "componentType" : 5126,
            "count" : 78,
            "type" : "VEC3"
        },
        {
            "bufferView" : 14,
            "componentType" : 5126,
            "count" : 78,
            "type" : "VEC2"
        },
        {
            "bufferView" : 15,
            "componentType" : 5126,
            "count" : 78,
            "type" : "VEC2"
        },
        {
            "bufferView" : 16,
            "componentType" : 5123,
            "count" : 78,
            "normalized" : true,
            "type" : "VEC4"
        },
        {
            "bufferView" : 17,
            "componentType" : 5123,
            "count" : 288,
            "type" : "SCALAR"
        },
        {
            "bufferView" : 18,
            "componentType" : 5126,
            "count" : 110,
            "max" : [
                0.9535265564918518,
                0.8645871877670288,
                0.9363985061645508
            ],
            "min" : [
                -0.9207022190093994,
                -0.2008579969406128,
                -0.3474080264568329
            ],
            "type" : "VEC3"
        },
        {
            "bufferView" : 19,
            "componentType" : 5126,
            "count" : 110,
            "type" : "VEC3"
        },
        {
            "bufferView" : 20,
            "componentType" : 5126,
            "count" : 110,
            "type" : "VEC2"
        },
        {
            "bufferView" : 21,
            "componentType" : 5126,
            "count" : 110,
            "type" : "VEC2"
        },
        {
            "bufferView" : 22,
            "componentType" : 5123,
            "count" : 110,
            "normalized" : true,
            "type" : "VEC4"
        },
        {
            "bufferView" : 23,
            "componentType" : 5123,
            "count" : 456,
            "type" : "SCALAR"
        }
    ],
    "bufferViews" : [
        {
            "buffer" : 0,
            "byteLength" : 756,
            "byteOffset" : 0
        },
        {
            "buffer" : 0,
            "byteLength" : 756,
            "byteOffset" : 756
        },
        {
            "buffer" : 0,
            "byteLength" : 504,
            "byteOffset" : 1512
        },
        {
            "buffer" : 0,
            "byteLength" : 504,
            "byteOffset" : 2016
        },
        {
            "buffer" : 0,
            "byteLength" : 504,
            "byteOffset" : 2520
        },
        {
            "buffer" : 0,
            "byteLength" : 600,
            "byteOffset" : 3024
        },
        {
            "buffer" : 0,
            "byteLength" : 360,
            "byteOffset" : 3624
        },
        {
            "buffer" : 0,
            "byteLength" : 360,
            "byteOffset" : 3984
        },
        {
            "buffer" : 0,
            "byteLength" : 240,
            "byteOffset" : 4344
        },
        {
            "buffer" : 0,
            "byteLength" : 240,
            "byteOffset" : 4584
        },
        {
            "buffer" : 0,
            "byteLength" : 240,
            "byteOffset" : 4824
        },
        {
            "buffer" : 0,
            "byteLength" : 132,
            "byteOffset" : 5064
        },
        {
            "buffer" : 0,
            "byteLength" : 936,
            "byteOffset" : 5196
        },
        {
            "buffer" : 0,
            "byteLength" : 936,
            "byteOffset" : 6132
        },
        {
            "buffer" : 0,
            "byteLength" : 624,
            "byteOffset" : 7068
        },
        {
            "buffer" : 0,
            "byteLength" : 624,
            "byteOffset" : 7692
        },
        {
            "buffer" : 0,
            "byteLength" : 624,
            "byteOffset" : 8316
        },
        {
            "buffer" : 0,
            "byteLength" : 576,
            "byteOffset" : 8940
        },
        {
            "buffer" : 0,
            "byteLength" : 1320,
            "byteOffset" : 9516
        },
        {
            "buffer" : 0,
            "byteLength" : 1320,
            "byteOffset" : 10836
        },
        {
            "buffer" : 0,
            "byteLength" : 880,
            "byteOffset" : 12156
        },
        {
            "buffer" : 0,
            "byteLength" : 880,
            "byteOffset" : 13036
        },
        {
            "buffer" : 0,
            "byteLength" : 880,
            "byteOffset" : 13916
        },
        {
            "buffer" : 0,
            "byteLength" : 912,
            "byteOffset" : 14796
        }
    ],
    "samplers" : [
        {
            "magFilter" : 9729,
            "minFilter" : 9986
        }
    ],
    "buffers" : [
        {
            "byteLength" : 15708,
            "uri" : "sandals.bin"
        }
    ]
}
