{
    "asset" : {
        "generator" : "Khronos glTF Blender I/O v1.4.40",
        "version" : "2.0"
    },
    "scene" : 0,
    "scenes" : [
        {
            "name" : "Scene",
            "nodes" : [
                0
            ]
        }
    ],
    "nodes" : [
        {
            "mesh" : 0,
            "name" : "Panel",
            "rotation" : [
                0.1582888513803482,
                0.6863694787025452,
                -0.15950970351696014,
                0.691663384437561
            ],
            "scale" : [
                0.30325889587402344,
                0.30325886607170105,
                0.3032589256763458
            ],
            "translation" : [
                -0.4043983817100525,
                -0.9269495606422424,
                0
            ]
        }
    ],
    "materials" : [
        {
            "doubleSided" : true,
            "name" : "Panel",
            "normalTexture" : {
                "index" : 0,
                "texCoord" : 0
            },
            "pbrMetallicRoughness" : {
                "baseColorFactor" : [
                    0.800000011920929,
                    0.800000011920929,
                    0.800000011920929,
                    1
                ],
                "metallicFactor" : 0,
                "roughnessFactor" : 0.5
            }
        },
        {
            "doubleSided" : true,
            "name" : "Visor",
            "normalTexture" : {
                "index" : 1,
                "texCoord" : 0
            },
            "pbrMetallicRoughness" : {
                "baseColorFactor" : [
                    0.800000011920929,
                    0.800000011920929,
                    0.800000011920929,
                    1
                ],
                "metallicFactor" : 0,
                "roughnessFactor" : 0.5
            }
        },
        {
            "doubleSided" : true,
            "name" : "Patch",
            "normalTexture" : {
                "index" : 2,
                "texCoord" : 0
            },
            "pbrMetallicRoughness" : {
                "baseColorFactor" : [
                    0.800000011920929,
                    0.800000011920929,
                    0.800000011920929,
                    1
                ],
                "metallicFactor" : 0,
                "roughnessFactor" : 0.5
            }
        },
        {
            "doubleSided" : true,
            "name" : "Backstrap",
            "normalTexture" : {
                "index" : 3,
                "texCoord" : 0
            },
            "pbrMetallicRoughness" : {
                "baseColorFactor" : [
                    0.800000011920929,
                    0.800000011920929,
                    0.800000011920929,
                    1
                ],
                "metallicFactor" : 0,
                "roughnessFactor" : 0.5
            }
        },
        {
            "doubleSided" : true,
            "name" : "Closure",
            "normalTexture" : {
                "index" : 4,
                "texCoord" : 0
            },
            "pbrMetallicRoughness" : {
                "baseColorFactor" : [
                    0.800000011920929,
                    0.800000011920929,
                    0.800000011920929,
                    1
                ],
                "metallicFactor" : 0,
                "roughnessFactor" : 0.5
            }
        },
        {
            "doubleSided" : true,
            "name" : "Eyelet",
            "normalTexture" : {
                "index" : 5,
                "texCoord" : 0
            },
            "pbrMetallicRoughness" : {
                "baseColorFactor" : [
                    0.800000011920929,
                    0.800000011920929,
                    0.800000011920929,
                    1
                ],
                "metallicFactor" : 0,
                "roughnessFactor" : 0.5
            }
        }
    ],
    "meshes" : [
        {
            "name" : "Hed_CAP007__M_CAP007.003",
            "primitives" : [
                {
                    "attributes" : {
                        "POSITION" : 0,
                        "NORMAL" : 1,
                        "TEXCOORD_0" : 2,
                        "COLOR_0" : 3
                    },
                    "indices" : 4,
                    "material" : 0
                },
                {
                    "attributes" : {
                        "POSITION" : 5,
                        "NORMAL" : 6,
                        "TEXCOORD_0" : 7,
                        "COLOR_0" : 8
                    },
                    "indices" : 9,
                    "material" : 1
                },
                {
                    "attributes" : {
                        "POSITION" : 10,
                        "NORMAL" : 11,
                        "TEXCOORD_0" : 12,
                        "COLOR_0" : 13
                    },
                    "indices" : 14,
                    "material" : 2
                },
                {
                    "attributes" : {
                        "POSITION" : 15,
                        "NORMAL" : 16,
                        "TEXCOORD_0" : 17,
                        "COLOR_0" : 18
                    },
                    "indices" : 19,
                    "material" : 3
                },
                {
                    "attributes" : {
                        "POSITION" : 20,
                        "NORMAL" : 21,
                        "TEXCOORD_0" : 22,
                        "COLOR_0" : 23
                    },
                    "indices" : 24,
                    "material" : 4
                },
                {
                    "attributes" : {
                        "POSITION" : 25,
                        "NORMAL" : 26,
                        "TEXCOORD_0" : 27,
                        "COLOR_0" : 28
                    },
                    "indices" : 29,
                    "material" : 5
                }
            ]
        }
    ],
    "textures" : [
        {
            "sampler" : 0,
            "source" : 0
        },
        {
            "sampler" : 0,
            "source" : 0
        },
        {
            "sampler" : 0,
            "source" : 0
        },
        {
            "sampler" : 0,
            "source" : 0
        },
        {
            "sampler" : 0,
            "source" : 0
        },
        {
            "sampler" : 0,
            "source" : 0
        }
    ],
    "images" : [
        {
            "mimeType" : "image/png",
            "name" : "normal",
            "uri" : "normal.png"
        }
    ],
    "accessors" : [
        {
            "bufferView" : 0,
            "componentType" : 5126,
            "count" : 339,
            "max" : [
                2.5257418155670166,
                4.325464248657227,
                1.1611249446868896
            ],
            "min" : [
                -2.5257415771484375,
                0.7257287502288818,
                -2.8950746059417725
            ],
            "type" : "VEC3"
        },
        {
            "bufferView" : 1,
            "componentType" : 5126,
            "count" : 339,
            "type" : "VEC3"
        },
        {
            "bufferView" : 2,
            "componentType" : 5126,
            "count" : 339,
            "type" : "VEC2"
        },
        {
            "bufferView" : 3,
            "componentType" : 5123,
            "count" : 339,
            "normalized" : true,
            "type" : "VEC4"
        },
        {
            "bufferView" : 4,
            "componentType" : 5123,
            "count" : 1434,
            "type" : "SCALAR"
        },
        {
            "bufferView" : 5,
            "componentType" : 5126,
            "count" : 85,
            "max" : [
                2.054370641708374,
                4.341317653656006,
                3.066093921661377
            ],
            "min" : [
                -2.054370641708374,
                2.8103127479553223,
                0.54856938123703
            ],
            "type" : "VEC3"
        },
        {
            "bufferView" : 6,
            "componentType" : 5126,
            "count" : 85,
            "type" : "VEC3"
        },
        {
            "bufferView" : 7,
            "componentType" : 5126,
            "count" : 85,
            "type" : "VEC2"
        },
        {
            "bufferView" : 8,
            "componentType" : 5123,
            "count" : 85,
            "normalized" : true,
            "type" : "VEC4"
        },
        {
            "bufferView" : 9,
            "componentType" : 5123,
            "count" : 300,
            "type" : "SCALAR"
        },
        {
            "bufferView" : 10,
            "componentType" : 5126,
            "count" : 6,
            "max" : [
                -0.8484513759613037,
                0.9556722044944763,
                -2.3304595947265625
            ],
            "min" : [
                -1.5178627967834473,
                0.4604749083518982,
                -2.7425427436828613
            ],
            "type" : "VEC3"
        },
        {
            "bufferView" : 11,
            "componentType" : 5126,
            "count" : 6,
            "type" : "VEC3"
        },
        {
            "bufferView" : 12,
            "componentType" : 5126,
            "count" : 6,
            "type" : "VEC2"
        },
        {
            "bufferView" : 13,
            "componentType" : 5123,
            "count" : 6,
            "normalized" : true,
            "type" : "VEC4"
        },
        {
            "bufferView" : 14,
            "componentType" : 5123,
            "count" : 12,
            "type" : "SCALAR"
        },
        {
            "bufferView" : 15,
            "componentType" : 5126,
            "count" : 240,
            "max" : [
                1.2541468143463135,
                1.41593337059021,
                -1.8480406999588013
            ],
            "min" : [
                -1.8134112358093262,
                0.1574617326259613,
                -3.0091793537139893
            ],
            "type" : "VEC3"
        },
        {
            "bufferView" : 16,
            "componentType" : 5126,
            "count" : 240,
            "type" : "VEC3"
        },
        {
            "bufferView" : 17,
            "componentType" : 5126,
            "count" : 240,
            "type" : "VEC2"
        },
        {
            "bufferView" : 18,
            "componentType" : 5123,
            "count" : 240,
            "normalized" : true,
            "type" : "VEC4"
        },
        {
            "bufferView" : 19,
            "componentType" : 5123,
            "count" : 504,
            "type" : "SCALAR"
        },
        {
            "bufferView" : 20,
            "componentType" : 5126,
            "count" : 184,
            "max" : [
                0.8989644646644592,
                1.3222005367279053,
                -1.9990966320037842
            ],
            "min" : [
                -0.2896440327167511,
                0.4523303508758545,
                -2.7990033626556396
            ],
            "type" : "VEC3"
        },
        {
            "bufferView" : 21,
            "componentType" : 5126,
            "count" : 184,
            "type" : "VEC3"
        },
        {
            "bufferView" : 22,
            "componentType" : 5126,
            "count" : 184,
            "type" : "VEC2"
        },
        {
            "bufferView" : 23,
            "componentType" : 5123,
            "count" : 184,
            "normalized" : true,
            "type" : "VEC4"
        },
        {
            "bufferView" : 24,
            "componentType" : 5123,
            "count" : 360,
            "type" : "SCALAR"
        },
        {
            "bufferView" : 25,
            "componentType" : 5126,
            "count" : 96,
            "max" : [
                2.279400587081909,
                3.39819073677063,
                -0.1680796891450882
            ],
            "min" : [
                -2.2794008255004883,
                2.9609975814819336,
                -0.6473322510719299
            ],
            "type" : "VEC3"
        },
        {
            "bufferView" : 26,
            "componentType" : 5126,
            "count" : 96,
            "type" : "VEC3"
        },
        {
            "bufferView" : 27,
            "componentType" : 5126,
            "count" : 96,
            "type" : "VEC2"
        },
        {
            "bufferView" : 28,
            "componentType" : 5123,
            "count" : 96,
            "normalized" : true,
            "type" : "VEC4"
        },
        {
            "bufferView" : 29,
            "componentType" : 5123,
            "count" : 492,
            "type" : "SCALAR"
        }
    ],
    "bufferViews" : [
        {
            "buffer" : 0,
            "byteLength" : 4068,
            "byteOffset" : 0
        },
        {
            "buffer" : 0,
            "byteLength" : 4068,
            "byteOffset" : 4068
        },
        {
            "buffer" : 0,
            "byteLength" : 2712,
            "byteOffset" : 8136
        },
        {
            "buffer" : 0,
            "byteLength" : 2712,
            "byteOffset" : 10848
        },
        {
            "buffer" : 0,
            "byteLength" : 2868,
            "byteOffset" : 13560
        },
        {
            "buffer" : 0,
            "byteLength" : 1020,
            "byteOffset" : 16428
        },
        {
            "buffer" : 0,
            "byteLength" : 1020,
            "byteOffset" : 17448
        },
        {
            "buffer" : 0,
            "byteLength" : 680,
            "byteOffset" : 18468
        },
        {
            "buffer" : 0,
            "byteLength" : 680,
            "byteOffset" : 19148
        },
        {
            "buffer" : 0,
            "byteLength" : 600,
            "byteOffset" : 19828
        },
        {
            "buffer" : 0,
            "byteLength" : 72,
            "byteOffset" : 20428
        },
        {
            "buffer" : 0,
            "byteLength" : 72,
            "byteOffset" : 20500
        },
        {
            "buffer" : 0,
            "byteLength" : 48,
            "byteOffset" : 20572
        },
        {
            "buffer" : 0,
            "byteLength" : 48,
            "byteOffset" : 20620
        },
        {
            "buffer" : 0,
            "byteLength" : 24,
            "byteOffset" : 20668
        },
        {
            "buffer" : 0,
            "byteLength" : 2880,
            "byteOffset" : 20692
        },
        {
            "buffer" : 0,
            "byteLength" : 2880,
            "byteOffset" : 23572
        },
        {
            "buffer" : 0,
            "byteLength" : 1920,
            "byteOffset" : 26452
        },
        {
            "buffer" : 0,
            "byteLength" : 1920,
            "byteOffset" : 28372
        },
        {
            "buffer" : 0,
            "byteLength" : 1008,
            "byteOffset" : 30292
        },
        {
            "buffer" : 0,
            "byteLength" : 2208,
            "byteOffset" : 31300
        },
        {
            "buffer" : 0,
            "byteLength" : 2208,
            "byteOffset" : 33508
        },
        {
            "buffer" : 0,
            "byteLength" : 1472,
            "byteOffset" : 35716
        },
        {
            "buffer" : 0,
            "byteLength" : 1472,
            "byteOffset" : 37188
        },
        {
            "buffer" : 0,
            "byteLength" : 720,
            "byteOffset" : 38660
        },
        {
            "buffer" : 0,
            "byteLength" : 1152,
            "byteOffset" : 39380
        },
        {
            "buffer" : 0,
            "byteLength" : 1152,
            "byteOffset" : 40532
        },
        {
            "buffer" : 0,
            "byteLength" : 768,
            "byteOffset" : 41684
        },
        {
            "buffer" : 0,
            "byteLength" : 768,
            "byteOffset" : 42452
        },
        {
            "buffer" : 0,
            "byteLength" : 984,
            "byteOffset" : 43220
        }
    ],
    "samplers" : [
        {
            "magFilter" : 9729,
            "minFilter" : 9986
        }
    ],
    "buffers" : [
        {
            "byteLength" : 44204,
            "uri" : "baseball.bin"
        }
    ]
}
