{
    "asset" : {
        "generator" : "Khronos glTF Blender I/O v1.4.40",
        "version" : "2.0"
    },
    "scene" : 0,
    "scenes" : [
        {
            "name" : "Scene",
            "nodes" : [
                0,
                1
            ]
        }
    ],
    "nodes" : [
        {
            "name" : "EnvironmentAmbientLight",
            "scale" : [
                0.02539999969303608,
                0.02539999969303608,
                0.02539999969303608
            ]
        },
        {
            "mesh" : 0,
            "name" : "Streetstyle",
            "rotation" : [
                0.07217630743980408,
                0.7078895568847656,
                -0.07127012312412262,
                0.6990019083023071
            ],
            "scale" : [
                0.29665517807006836,
                0.29665514826774597,
                0.29665517807006836
            ],
            "translation" : [
                -0.18422378599643707,
                -0.9782419800758362,
                0
            ]
        }
    ],
    "materials" : [
        {
            "doubleSided" : true,
            "name" : "Panel",
            "normalTexture" : {
                "index" : 0,
                "texCoord" : 0
            },
            "pbrMetallicRoughness" : {
                "baseColorFactor" : [
                    0.800000011920929,
                    0.800000011920929,
                    0.800000011920929,
                    1
                ],
                "metallicFactor" : 0,
                "roughnessFactor" : 0.5
            }
        },
        {
            "doubleSided" : true,
            "name" : "Visor",
            "normalTexture" : {
                "index" : 1,
                "texCoord" : 0
            },
            "pbrMetallicRoughness" : {
                "baseColorFactor" : [
                    0.800000011920929,
                    0.800000011920929,
                    0.800000011920929,
                    1
                ],
                "metallicFactor" : 0,
                "roughnessFactor" : 0.5
            }
        },
        {
            "doubleSided" : true,
            "name" : "Backstrap",
            "normalTexture" : {
                "index" : 2,
                "texCoord" : 0
            },
            "pbrMetallicRoughness" : {
                "baseColorFactor" : [
                    0.800000011920929,
                    0.800000011920929,
                    0.800000011920929,
                    1
                ],
                "metallicFactor" : 0,
                "roughnessFactor" : 0.5
            }
        },
        {
            "doubleSided" : true,
            "name" : "Closure",
            "normalTexture" : {
                "index" : 3,
                "texCoord" : 0
            },
            "pbrMetallicRoughness" : {
                "baseColorFactor" : [
                    0.800000011920929,
                    0.800000011920929,
                    0.800000011920929,
                    1
                ],
                "metallicFactor" : 0,
                "roughnessFactor" : 0.5
            }
        },
        {
            "doubleSided" : true,
            "name" : "Button",
            "normalTexture" : {
                "index" : 4,
                "texCoord" : 0
            },
            "pbrMetallicRoughness" : {
                "baseColorFactor" : [
                    0.800000011920929,
                    0.800000011920929,
                    0.800000011920929,
                    1
                ],
                "metallicFactor" : 0,
                "roughnessFactor" : 0.5
            }
        },
        {
            "doubleSided" : true,
            "name" : "Patch",
            "normalTexture" : {
                "index" : 5,
                "texCoord" : 0
            },
            "pbrMetallicRoughness" : {
                "baseColorFactor" : [
                    0.800000011920929,
                    0.800000011920929,
                    0.800000011920929,
                    1
                ],
                "metallicFactor" : 0,
                "roughnessFactor" : 0.5
            }
        },
        {
            "doubleSided" : true,
            "name" : "Underpeak",
            "normalTexture" : {
                "index" : 6,
                "texCoord" : 0
            },
            "pbrMetallicRoughness" : {
                "baseColorFactor" : [
                    0.800000011920929,
                    0.800000011920929,
                    0.800000011920929,
                    1
                ],
                "metallicFactor" : 0,
                "roughnessFactor" : 0.5
            }
        }
    ],
    "meshes" : [
        {
            "name" : "Streestyle",
            "primitives" : [
                {
                    "attributes" : {
                        "POSITION" : 0,
                        "NORMAL" : 1,
                        "TEXCOORD_0" : 2,
                        "COLOR_0" : 3
                    },
                    "indices" : 4,
                    "material" : 0
                },
                {
                    "attributes" : {
                        "POSITION" : 5,
                        "NORMAL" : 6,
                        "TEXCOORD_0" : 7,
                        "COLOR_0" : 8
                    },
                    "indices" : 9,
                    "material" : 1
                },
                {
                    "attributes" : {
                        "POSITION" : 10,
                        "NORMAL" : 11,
                        "TEXCOORD_0" : 12,
                        "COLOR_0" : 13
                    },
                    "indices" : 14,
                    "material" : 2
                },
                {
                    "attributes" : {
                        "POSITION" : 15,
                        "NORMAL" : 16,
                        "TEXCOORD_0" : 17,
                        "COLOR_0" : 18
                    },
                    "indices" : 19,
                    "material" : 3
                },
                {
                    "attributes" : {
                        "POSITION" : 20,
                        "NORMAL" : 21,
                        "TEXCOORD_0" : 22,
                        "COLOR_0" : 23
                    },
                    "indices" : 24,
                    "material" : 4
                },
                {
                    "attributes" : {
                        "POSITION" : 25,
                        "NORMAL" : 26,
                        "TEXCOORD_0" : 27,
                        "COLOR_0" : 28
                    },
                    "indices" : 29,
                    "material" : 5
                },
                {
                    "attributes" : {
                        "POSITION" : 30,
                        "NORMAL" : 31,
                        "TEXCOORD_0" : 32,
                        "COLOR_0" : 33
                    },
                    "indices" : 34,
                    "material" : 6
                }
            ]
        }
    ],
    "textures" : [
        {
            "sampler" : 0,
            "source" : 0
        },
        {
            "sampler" : 0,
            "source" : 0
        },
        {
            "sampler" : 0,
            "source" : 0
        },
        {
            "sampler" : 0,
            "source" : 0
        },
        {
            "sampler" : 0,
            "source" : 0
        },
        {
            "sampler" : 0,
            "source" : 0
        },
        {
            "sampler" : 0,
            "source" : 0
        }
    ],
    "images" : [
        {
            "mimeType" : "image/png",
            "name" : "normal",
            "uri" : "normal.png"
        }
    ],
    "accessors" : [
        {
            "bufferView" : 0,
            "componentType" : 5126,
            "count" : 217,
            "max" : [
                2.5343053340911865,
                4.6770339012146,
                2.106627941131592
            ],
            "min" : [
                -2.5703041553497314,
                1.2544329166412354,
                -3.051021099090576
            ],
            "type" : "VEC3"
        },
        {
            "bufferView" : 1,
            "componentType" : 5126,
            "count" : 217,
            "type" : "VEC3"
        },
        {
            "bufferView" : 2,
            "componentType" : 5126,
            "count" : 217,
            "type" : "VEC2"
        },
        {
            "bufferView" : 3,
            "componentType" : 5123,
            "count" : 217,
            "normalized" : true,
            "type" : "VEC4"
        },
        {
            "bufferView" : 4,
            "componentType" : 5123,
            "count" : 999,
            "type" : "SCALAR"
        },
        {
            "bufferView" : 5,
            "componentType" : 5126,
            "count" : 64,
            "max" : [
                2.6423752307891846,
                4.05583381652832,
                3.540447950363159
            ],
            "min" : [
                -2.678373336791992,
                2.3778717517852783,
                0.8124033808708191
            ],
            "type" : "VEC3"
        },
        {
            "bufferView" : 6,
            "componentType" : 5126,
            "count" : 64,
            "type" : "VEC3"
        },
        {
            "bufferView" : 7,
            "componentType" : 5126,
            "count" : 64,
            "type" : "VEC2"
        },
        {
            "bufferView" : 8,
            "componentType" : 5123,
            "count" : 64,
            "normalized" : true,
            "type" : "VEC4"
        },
        {
            "bufferView" : 9,
            "componentType" : 5123,
            "count" : 180,
            "type" : "SCALAR"
        },
        {
            "bufferView" : 10,
            "componentType" : 5126,
            "count" : 123,
            "max" : [
                1.4277783632278442,
                1.8693658113479614,
                -2.1929750442504883
            ],
            "min" : [
                -2.272411823272705,
                1.2952886819839478,
                -2.910897970199585
            ],
            "type" : "VEC3"
        },
        {
            "bufferView" : 11,
            "componentType" : 5126,
            "count" : 123,
            "type" : "VEC3"
        },
        {
            "bufferView" : 12,
            "componentType" : 5126,
            "count" : 123,
            "type" : "VEC2"
        },
        {
            "bufferView" : 13,
            "componentType" : 5123,
            "count" : 123,
            "normalized" : true,
            "type" : "VEC4"
        },
        {
            "bufferView" : 14,
            "componentType" : 5123,
            "count" : 294,
            "type" : "SCALAR"
        },
        {
            "bufferView" : 15,
            "componentType" : 5126,
            "count" : 78,
            "max" : [
                -0.8855902552604675,
                1.8637468814849854,
                -2.356909990310669
            ],
            "min" : [
                -1.4989264011383057,
                1.2585726976394653,
                -2.896174907684326
            ],
            "type" : "VEC3"
        },
        {
            "bufferView" : 16,
            "componentType" : 5126,
            "count" : 78,
            "type" : "VEC3"
        },
        {
            "bufferView" : 17,
            "componentType" : 5126,
            "count" : 78,
            "type" : "VEC2"
        },
        {
            "bufferView" : 18,
            "componentType" : 5123,
            "count" : 78,
            "normalized" : true,
            "type" : "VEC4"
        },
        {
            "bufferView" : 19,
            "componentType" : 5123,
            "count" : 216,
            "type" : "SCALAR"
        },
        {
            "bufferView" : 20,
            "componentType" : 5126,
            "count" : 73,
            "max" : [
                0.31999972462654114,
                4.638329982757568,
                -0.8865718841552734
            ],
            "min" : [
                -0.35599973797798157,
                4.258356094360352,
                -1.533911943435669
            ],
            "type" : "VEC3"
        },
        {
            "bufferView" : 21,
            "componentType" : 5126,
            "count" : 73,
            "type" : "VEC3"
        },
        {
            "bufferView" : 22,
            "componentType" : 5126,
            "count" : 73,
            "type" : "VEC2"
        },
        {
            "bufferView" : 23,
            "componentType" : 5123,
            "count" : 73,
            "normalized" : true,
            "type" : "VEC4"
        },
        {
            "bufferView" : 24,
            "componentType" : 5123,
            "count" : 396,
            "type" : "SCALAR"
        },
        {
            "bufferView" : 25,
            "componentType" : 5126,
            "count" : 198,
            "max" : [
                0.6748128533363342,
                4.35896110534668,
                2.047390937805176
            ],
            "min" : [
                -0.664071798324585,
                3.2022054195404053,
                1.0706491470336914
            ],
            "type" : "VEC3"
        },
        {
            "bufferView" : 26,
            "componentType" : 5126,
            "count" : 198,
            "type" : "VEC3"
        },
        {
            "bufferView" : 27,
            "componentType" : 5126,
            "count" : 198,
            "type" : "VEC2"
        },
        {
            "bufferView" : 28,
            "componentType" : 5123,
            "count" : 198,
            "normalized" : true,
            "type" : "VEC4"
        },
        {
            "bufferView" : 29,
            "componentType" : 5123,
            "count" : 504,
            "type" : "SCALAR"
        },
        {
            "bufferView" : 30,
            "componentType" : 5126,
            "count" : 46,
            "max" : [
                2.6423752307891846,
                3.9700417518615723,
                3.540447950363159
            ],
            "min" : [
                -2.678373336791992,
                2.3778717517852783,
                0.8124033808708191
            ],
            "type" : "VEC3"
        },
        {
            "bufferView" : 31,
            "componentType" : 5126,
            "count" : 46,
            "type" : "VEC3"
        },
        {
            "bufferView" : 32,
            "componentType" : 5126,
            "count" : 46,
            "type" : "VEC2"
        },
        {
            "bufferView" : 33,
            "componentType" : 5123,
            "count" : 46,
            "normalized" : true,
            "type" : "VEC4"
        },
        {
            "bufferView" : 34,
            "componentType" : 5123,
            "count" : 180,
            "type" : "SCALAR"
        }
    ],
    "bufferViews" : [
        {
            "buffer" : 0,
            "byteLength" : 2604,
            "byteOffset" : 0
        },
        {
            "buffer" : 0,
            "byteLength" : 2604,
            "byteOffset" : 2604
        },
        {
            "buffer" : 0,
            "byteLength" : 1736,
            "byteOffset" : 5208
        },
        {
            "buffer" : 0,
            "byteLength" : 1736,
            "byteOffset" : 6944
        },
        {
            "buffer" : 0,
            "byteLength" : 1998,
            "byteOffset" : 8680
        },
        {
            "buffer" : 0,
            "byteLength" : 768,
            "byteOffset" : 10680
        },
        {
            "buffer" : 0,
            "byteLength" : 768,
            "byteOffset" : 11448
        },
        {
            "buffer" : 0,
            "byteLength" : 512,
            "byteOffset" : 12216
        },
        {
            "buffer" : 0,
            "byteLength" : 512,
            "byteOffset" : 12728
        },
        {
            "buffer" : 0,
            "byteLength" : 360,
            "byteOffset" : 13240
        },
        {
            "buffer" : 0,
            "byteLength" : 1476,
            "byteOffset" : 13600
        },
        {
            "buffer" : 0,
            "byteLength" : 1476,
            "byteOffset" : 15076
        },
        {
            "buffer" : 0,
            "byteLength" : 984,
            "byteOffset" : 16552
        },
        {
            "buffer" : 0,
            "byteLength" : 984,
            "byteOffset" : 17536
        },
        {
            "buffer" : 0,
            "byteLength" : 588,
            "byteOffset" : 18520
        },
        {
            "buffer" : 0,
            "byteLength" : 936,
            "byteOffset" : 19108
        },
        {
            "buffer" : 0,
            "byteLength" : 936,
            "byteOffset" : 20044
        },
        {
            "buffer" : 0,
            "byteLength" : 624,
            "byteOffset" : 20980
        },
        {
            "buffer" : 0,
            "byteLength" : 624,
            "byteOffset" : 21604
        },
        {
            "buffer" : 0,
            "byteLength" : 432,
            "byteOffset" : 22228
        },
        {
            "buffer" : 0,
            "byteLength" : 876,
            "byteOffset" : 22660
        },
        {
            "buffer" : 0,
            "byteLength" : 876,
            "byteOffset" : 23536
        },
        {
            "buffer" : 0,
            "byteLength" : 584,
            "byteOffset" : 24412
        },
        {
            "buffer" : 0,
            "byteLength" : 584,
            "byteOffset" : 24996
        },
        {
            "buffer" : 0,
            "byteLength" : 792,
            "byteOffset" : 25580
        },
        {
            "buffer" : 0,
            "byteLength" : 2376,
            "byteOffset" : 26372
        },
        {
            "buffer" : 0,
            "byteLength" : 2376,
            "byteOffset" : 28748
        },
        {
            "buffer" : 0,
            "byteLength" : 1584,
            "byteOffset" : 31124
        },
        {
            "buffer" : 0,
            "byteLength" : 1584,
            "byteOffset" : 32708
        },
        {
            "buffer" : 0,
            "byteLength" : 1008,
            "byteOffset" : 34292
        },
        {
            "buffer" : 0,
            "byteLength" : 552,
            "byteOffset" : 35300
        },
        {
            "buffer" : 0,
            "byteLength" : 552,
            "byteOffset" : 35852
        },
        {
            "buffer" : 0,
            "byteLength" : 368,
            "byteOffset" : 36404
        },
        {
            "buffer" : 0,
            "byteLength" : 368,
            "byteOffset" : 36772
        },
        {
            "buffer" : 0,
            "byteLength" : 360,
            "byteOffset" : 37140
        }
    ],
    "samplers" : [
        {
            "magFilter" : 9729,
            "minFilter" : 9986
        }
    ],
    "buffers" : [
        {
            "byteLength" : 37500,
            "uri" : "streetstyle.bin"
        }
    ]
}
