{
    "asset" : {
        "generator" : "Khronos glTF Blender I/O v1.4.40",
        "version" : "2.0"
    },
    "scene" : 0,
    "scenes" : [
        {
            "name" : "Scene",
            "nodes" : [
                0
            ]
        }
    ],
    "nodes" : [
        {
            "mesh" : 0,
            "name" : "Norimaki",
            "rotation" : [
                0,
                0.7033228874206543,
                0,
                0.7108705639839172
            ],
            "scale" : [
                0.4853701591491699,
                0.48537012934684753,
                0.4853701591491699
            ],
            "translation" : [
                -0.2610744535923004,
                0.013291962444782257,
                -0.05184141919016838
            ]
        }
    ],
    "materials" : [
        {
            "doubleSided" : true,
            "name" : "Mainc",
            "normalTexture" : {
                "index" : 0,
                "texCoord" : 0
            },
            "pbrMetallicRoughness" : {
                "baseColorFactor" : [
                    0.800000011920929,
                    0.800000011920929,
                    0.800000011920929,
                    1
                ],
                "metallicFactor" : 0,
                "roughnessFactor" : 0.5
            }
        },
        {
            "doubleSided" : true,
            "name" : "Patch",
            "normalTexture" : {
                "index" : 1,
                "texCoord" : 0
            },
            "pbrMetallicRoughness" : {
                "baseColorFactor" : [
                    0.800000011920929,
                    0.800000011920929,
                    0.800000011920929,
                    1
                ],
                "metallicFactor" : 0,
                "roughnessFactor" : 0.5
            }
        },
        {
            "doubleSided" : true,
            "name" : "Foxing",
            "normalTexture" : {
                "index" : 2,
                "texCoord" : 0
            },
            "pbrMetallicRoughness" : {
                "baseColorFactor" : [
                    0.800000011920929,
                    0.800000011920929,
                    0.800000011920929,
                    1
                ],
                "metallicFactor" : 0,
                "roughnessFactor" : 0.5
            }
        },
        {
            "doubleSided" : true,
            "name" : "Pulltab",
            "normalTexture" : {
                "index" : 3,
                "texCoord" : 0
            },
            "pbrMetallicRoughness" : {
                "baseColorFactor" : [
                    0.800000011920929,
                    0.800000011920929,
                    0.800000011920929,
                    1
                ],
                "metallicFactor" : 0,
                "roughnessFactor" : 0.5
            }
        },
        {
            "doubleSided" : true,
            "name" : "Slip",
            "normalTexture" : {
                "index" : 4,
                "texCoord" : 0
            },
            "pbrMetallicRoughness" : {
                "baseColorFactor" : [
                    0.800000011920929,
                    0.800000011920929,
                    0.800000011920929,
                    1
                ],
                "metallicFactor" : 0,
                "roughnessFactor" : 0.5
            }
        },
        {
            "doubleSided" : true,
            "name" : "Midsole",
            "normalTexture" : {
                "index" : 5,
                "texCoord" : 0
            },
            "pbrMetallicRoughness" : {
                "baseColorFactor" : [
                    0.800000011920929,
                    0.800000011920929,
                    0.800000011920929,
                    1
                ],
                "metallicFactor" : 0,
                "roughnessFactor" : 0.5
            }
        },
        {
            "doubleSided" : true,
            "name" : "Outsole",
            "normalTexture" : {
                "index" : 6,
                "texCoord" : 0
            },
            "pbrMetallicRoughness" : {
                "baseColorFactor" : [
                    0.800000011920929,
                    0.800000011920929,
                    0.800000011920929,
                    1
                ],
                "metallicFactor" : 0,
                "roughnessFactor" : 0.5
            }
        },
        {
            "doubleSided" : true,
            "name" : "Insole",
            "normalTexture" : {
                "index" : 7,
                "texCoord" : 0
            },
            "pbrMetallicRoughness" : {
                "baseColorFactor" : [
                    0.800000011920929,
                    0.800000011920929,
                    0.800000011920929,
                    1
                ],
                "metallicFactor" : 0,
                "roughnessFactor" : 0.5
            }
        }
    ],
    "meshes" : [
        {
            "name" : "Shs_SHI014__M_SHI014.020",
            "primitives" : [
                {
                    "attributes" : {
                        "POSITION" : 0,
                        "NORMAL" : 1,
                        "TEXCOORD_0" : 2,
                        "COLOR_0" : 3
                    },
                    "indices" : 4,
                    "material" : 0
                },
                {
                    "attributes" : {
                        "POSITION" : 5,
                        "NORMAL" : 6,
                        "TEXCOORD_0" : 7,
                        "COLOR_0" : 8
                    },
                    "indices" : 9,
                    "material" : 1
                },
                {
                    "attributes" : {
                        "POSITION" : 10,
                        "NORMAL" : 11,
                        "TEXCOORD_0" : 12,
                        "COLOR_0" : 13
                    },
                    "indices" : 14,
                    "material" : 2
                },
                {
                    "attributes" : {
                        "POSITION" : 15,
                        "NORMAL" : 16,
                        "TEXCOORD_0" : 17,
                        "COLOR_0" : 18
                    },
                    "indices" : 19,
                    "material" : 3
                },
                {
                    "attributes" : {
                        "POSITION" : 20,
                        "NORMAL" : 21,
                        "TEXCOORD_0" : 22,
                        "COLOR_0" : 23
                    },
                    "indices" : 24,
                    "material" : 4
                },
                {
                    "attributes" : {
                        "POSITION" : 25,
                        "NORMAL" : 26,
                        "TEXCOORD_0" : 27,
                        "COLOR_0" : 28
                    },
                    "indices" : 29,
                    "material" : 5
                },
                {
                    "attributes" : {
                        "POSITION" : 30,
                        "NORMAL" : 31,
                        "TEXCOORD_0" : 32,
                        "COLOR_0" : 33
                    },
                    "indices" : 34,
                    "material" : 6
                },
                {
                    "attributes" : {
                        "POSITION" : 35,
                        "NORMAL" : 36,
                        "TEXCOORD_0" : 37,
                        "COLOR_0" : 38
                    },
                    "indices" : 39,
                    "material" : 7
                }
            ]
        }
    ],
    "textures" : [
        {
            "sampler" : 0,
            "source" : 0
        },
        {
            "sampler" : 0,
            "source" : 0
        },
        {
            "sampler" : 0,
            "source" : 0
        },
        {
            "sampler" : 0,
            "source" : 0
        },
        {
            "sampler" : 0,
            "source" : 0
        },
        {
            "sampler" : 0,
            "source" : 0
        },
        {
            "sampler" : 0,
            "source" : 0
        },
        {
            "sampler" : 0,
            "source" : 0
        }
    ],
    "images" : [
        {
            "mimeType" : "image/png",
            "name" : "M_SHI014_Nrm",
            "uri" : "M_SHI014_Nrm.png"
        }
    ],
    "accessors" : [
        {
            "bufferView" : 0,
            "componentType" : 5126,
            "count" : 78,
            "max" : [
                0.7217949628829956,
                1.3106123208999634,
                2.478097915649414
            ],
            "min" : [
                -0.7469244003295898,
                -0.7566438913345337,
                -0.5576776266098022
            ],
            "type" : "VEC3"
        },
        {
            "bufferView" : 1,
            "componentType" : 5126,
            "count" : 78,
            "type" : "VEC3"
        },
        {
            "bufferView" : 2,
            "componentType" : 5126,
            "count" : 78,
            "type" : "VEC2"
        },
        {
            "bufferView" : 3,
            "componentType" : 5123,
            "count" : 78,
            "normalized" : true,
            "type" : "VEC4"
        },
        {
            "bufferView" : 4,
            "componentType" : 5123,
            "count" : 330,
            "type" : "SCALAR"
        },
        {
            "bufferView" : 5,
            "componentType" : 5126,
            "count" : 18,
            "max" : [
                0.7835506796836853,
                -0.14115199446678162,
                1.0811655521392822
            ],
            "min" : [
                0.5472412109375,
                -0.3823029696941376,
                0.03269609436392784
            ],
            "type" : "VEC3"
        },
        {
            "bufferView" : 6,
            "componentType" : 5126,
            "count" : 18,
            "type" : "VEC3"
        },
        {
            "bufferView" : 7,
            "componentType" : 5126,
            "count" : 18,
            "type" : "VEC2"
        },
        {
            "bufferView" : 8,
            "componentType" : 5123,
            "count" : 18,
            "normalized" : true,
            "type" : "VEC4"
        },
        {
            "bufferView" : 9,
            "componentType" : 5123,
            "count" : 30,
            "type" : "SCALAR"
        },
        {
            "bufferView" : 10,
            "componentType" : 5126,
            "count" : 39,
            "max" : [
                0.6100016832351685,
                0.6537891626358032,
                -0.17625108361244202
            ],
            "min" : [
                -0.6317633390426636,
                -0.6326579451560974,
                -1.348986029624939
            ],
            "type" : "VEC3"
        },
        {
            "bufferView" : 11,
            "componentType" : 5126,
            "count" : 39,
            "type" : "VEC3"
        },
        {
            "bufferView" : 12,
            "componentType" : 5126,
            "count" : 39,
            "type" : "VEC2"
        },
        {
            "bufferView" : 13,
            "componentType" : 5123,
            "count" : 39,
            "normalized" : true,
            "type" : "VEC4"
        },
        {
            "bufferView" : 14,
            "componentType" : 5123,
            "count" : 168,
            "type" : "SCALAR"
        },
        {
            "bufferView" : 15,
            "componentType" : 5126,
            "count" : 218,
            "max" : [
                0.11897532641887665,
                1.5476106405258179,
                0.5649647116661072
            ],
            "min" : [
                -0.20350061357021332,
                -0.49728792905807495,
                -1.7145899534225464
            ],
            "type" : "VEC3"
        },
        {
            "bufferView" : 16,
            "componentType" : 5126,
            "count" : 218,
            "type" : "VEC3"
        },
        {
            "bufferView" : 17,
            "componentType" : 5126,
            "count" : 218,
            "type" : "VEC2"
        },
        {
            "bufferView" : 18,
            "componentType" : 5123,
            "count" : 218,
            "normalized" : true,
            "type" : "VEC4"
        },
        {
            "bufferView" : 19,
            "componentType" : 5123,
            "count" : 540,
            "type" : "SCALAR"
        },
        {
            "bufferView" : 20,
            "componentType" : 5126,
            "count" : 51,
            "max" : [
                0.6964744925498962,
                0.27619192004203796,
                1.2104917764663696
            ],
            "min" : [
                -0.6760653257369995,
                -0.7359728813171387,
                -0.17625108361244202
            ],
            "type" : "VEC3"
        },
        {
            "bufferView" : 21,
            "componentType" : 5126,
            "count" : 51,
            "type" : "VEC3"
        },
        {
            "bufferView" : 22,
            "componentType" : 5126,
            "count" : 51,
            "type" : "VEC2"
        },
        {
            "bufferView" : 23,
            "componentType" : 5123,
            "count" : 51,
            "normalized" : true,
            "type" : "VEC4"
        },
        {
            "bufferView" : 24,
            "componentType" : 5123,
            "count" : 171,
            "type" : "SCALAR"
        },
        {
            "bufferView" : 25,
            "componentType" : 5126,
            "count" : 109,
            "max" : [
                0.8415133953094482,
                -0.4891889691352844,
                2.5225884914398193
            ],
            "min" : [
                -0.8446013927459717,
                -1.1758058071136475,
                -1.5318130254745483
            ],
            "type" : "VEC3"
        },
        {
            "bufferView" : 26,
            "componentType" : 5126,
            "count" : 109,
            "type" : "VEC3"
        },
        {
            "bufferView" : 27,
            "componentType" : 5126,
            "count" : 109,
            "type" : "VEC2"
        },
        {
            "bufferView" : 28,
            "componentType" : 5123,
            "count" : 109,
            "normalized" : true,
            "type" : "VEC4"
        },
        {
            "bufferView" : 29,
            "componentType" : 5123,
            "count" : 459,
            "type" : "SCALAR"
        },
        {
            "bufferView" : 30,
            "componentType" : 5126,
            "count" : 63,
            "max" : [
                0.7014668583869934,
                -0.7101839184761047,
                2.4573006629943848
            ],
            "min" : [
                -0.7293459177017212,
                -1.1990947723388672,
                -1.3700670003890991
            ],
            "type" : "VEC3"
        },
        {
            "bufferView" : 31,
            "componentType" : 5126,
            "count" : 63,
            "type" : "VEC3"
        },
        {
            "bufferView" : 32,
            "componentType" : 5126,
            "count" : 63,
            "type" : "VEC2"
        },
        {
            "bufferView" : 33,
            "componentType" : 5123,
            "count" : 63,
            "normalized" : true,
            "type" : "VEC4"
        },
        {
            "bufferView" : 34,
            "componentType" : 5123,
            "count" : 300,
            "type" : "SCALAR"
        },
        {
            "bufferView" : 35,
            "componentType" : 5126,
            "count" : 69,
            "max" : [
                0.443666011095047,
                1.3422530889511108,
                0.3746965825557709
            ],
            "min" : [
                -0.528191328048706,
                -0.07250797003507614,
                -1.1218181848526
            ],
            "type" : "VEC3"
        },
        {
            "bufferView" : 36,
            "componentType" : 5126,
            "count" : 69,
            "type" : "VEC3"
        },
        {
            "bufferView" : 37,
            "componentType" : 5126,
            "count" : 69,
            "type" : "VEC2"
        },
        {
            "bufferView" : 38,
            "componentType" : 5123,
            "count" : 69,
            "normalized" : true,
            "type" : "VEC4"
        },
        {
            "bufferView" : 39,
            "componentType" : 5123,
            "count" : 360,
            "type" : "SCALAR"
        }
    ],
    "bufferViews" : [
        {
            "buffer" : 0,
            "byteLength" : 936,
            "byteOffset" : 0
        },
        {
            "buffer" : 0,
            "byteLength" : 936,
            "byteOffset" : 936
        },
        {
            "buffer" : 0,
            "byteLength" : 624,
            "byteOffset" : 1872
        },
        {
            "buffer" : 0,
            "byteLength" : 624,
            "byteOffset" : 2496
        },
        {
            "buffer" : 0,
            "byteLength" : 660,
            "byteOffset" : 3120
        },
        {
            "buffer" : 0,
            "byteLength" : 216,
            "byteOffset" : 3780
        },
        {
            "buffer" : 0,
            "byteLength" : 216,
            "byteOffset" : 3996
        },
        {
            "buffer" : 0,
            "byteLength" : 144,
            "byteOffset" : 4212
        },
        {
            "buffer" : 0,
            "byteLength" : 144,
            "byteOffset" : 4356
        },
        {
            "buffer" : 0,
            "byteLength" : 60,
            "byteOffset" : 4500
        },
        {
            "buffer" : 0,
            "byteLength" : 468,
            "byteOffset" : 4560
        },
        {
            "buffer" : 0,
            "byteLength" : 468,
            "byteOffset" : 5028
        },
        {
            "buffer" : 0,
            "byteLength" : 312,
            "byteOffset" : 5496
        },
        {
            "buffer" : 0,
            "byteLength" : 312,
            "byteOffset" : 5808
        },
        {
            "buffer" : 0,
            "byteLength" : 336,
            "byteOffset" : 6120
        },
        {
            "buffer" : 0,
            "byteLength" : 2616,
            "byteOffset" : 6456
        },
        {
            "buffer" : 0,
            "byteLength" : 2616,
            "byteOffset" : 9072
        },
        {
            "buffer" : 0,
            "byteLength" : 1744,
            "byteOffset" : 11688
        },
        {
            "buffer" : 0,
            "byteLength" : 1744,
            "byteOffset" : 13432
        },
        {
            "buffer" : 0,
            "byteLength" : 1080,
            "byteOffset" : 15176
        },
        {
            "buffer" : 0,
            "byteLength" : 612,
            "byteOffset" : 16256
        },
        {
            "buffer" : 0,
            "byteLength" : 612,
            "byteOffset" : 16868
        },
        {
            "buffer" : 0,
            "byteLength" : 408,
            "byteOffset" : 17480
        },
        {
            "buffer" : 0,
            "byteLength" : 408,
            "byteOffset" : 17888
        },
        {
            "buffer" : 0,
            "byteLength" : 342,
            "byteOffset" : 18296
        },
        {
            "buffer" : 0,
            "byteLength" : 1308,
            "byteOffset" : 18640
        },
        {
            "buffer" : 0,
            "byteLength" : 1308,
            "byteOffset" : 19948
        },
        {
            "buffer" : 0,
            "byteLength" : 872,
            "byteOffset" : 21256
        },
        {
            "buffer" : 0,
            "byteLength" : 872,
            "byteOffset" : 22128
        },
        {
            "buffer" : 0,
            "byteLength" : 918,
            "byteOffset" : 23000
        },
        {
            "buffer" : 0,
            "byteLength" : 756,
            "byteOffset" : 23920
        },
        {
            "buffer" : 0,
            "byteLength" : 756,
            "byteOffset" : 24676
        },
        {
            "buffer" : 0,
            "byteLength" : 504,
            "byteOffset" : 25432
        },
        {
            "buffer" : 0,
            "byteLength" : 504,
            "byteOffset" : 25936
        },
        {
            "buffer" : 0,
            "byteLength" : 600,
            "byteOffset" : 26440
        },
        {
            "buffer" : 0,
            "byteLength" : 828,
            "byteOffset" : 27040
        },
        {
            "buffer" : 0,
            "byteLength" : 828,
            "byteOffset" : 27868
        },
        {
            "buffer" : 0,
            "byteLength" : 552,
            "byteOffset" : 28696
        },
        {
            "buffer" : 0,
            "byteLength" : 552,
            "byteOffset" : 29248
        },
        {
            "buffer" : 0,
            "byteLength" : 720,
            "byteOffset" : 29800
        }
    ],
    "samplers" : [
        {
            "magFilter" : 9729,
            "minFilter" : 9986
        }
    ],
    "buffers" : [
        {
            "byteLength" : 30520,
            "uri" : "norimaki.bin"
        }
    ]
}
