{
    "asset" : {
        "generator" : "Khronos glTF Blender I/O v1.4.40",
        "version" : "2.0"
    },
    "scene" : 0,
    "scenes" : [
        {
            "name" : "Scene",
            "nodes" : [
                0
            ]
        }
    ],
    "nodes" : [
        {
            "mesh" : 0,
            "name" : "Sandals",
            "rotation" : [
                0,
                0.7044221758842468,
                0,
                0.7097812294960022
            ],
            "scale" : [
                -0.5235480666160583,
                0.5235481262207031,
                0.5235480666160583
            ],
            "translation" : [
                -0.1623157262802124,
                0.048219308257102966,
                0
            ]
        }
    ],
    "materials" : [
        {
            "doubleSided" : true,
            "name" : "Footbed",
            "normalTexture" : {
                "index" : 0,
                "texCoord" : 0
            },
            "pbrMetallicRoughness" : {
                "baseColorFactor" : [
                    0.800000011920929,
                    0.800000011920929,
                    0.800000011920929,
                    1
                ],
                "metallicFactor" : 0,
                "roughnessFactor" : 0.5
            }
        },
        {
            "doubleSided" : true,
            "name" : "Strap",
            "normalTexture" : {
                "index" : 1,
                "texCoord" : 0
            },
            "pbrMetallicRoughness" : {
                "baseColorFactor" : [
                    0.800000011920929,
                    0.800000011920929,
                    0.800000011920929,
                    1
                ],
                "metallicFactor" : 0,
                "roughnessFactor" : 0.5
            }
        },
        {
            "doubleSided" : true,
            "name" : "Backstrap",
            "normalTexture" : {
                "index" : 2,
                "texCoord" : 0
            },
            "pbrMetallicRoughness" : {
                "baseColorFactor" : [
                    0.800000011920929,
                    0.800000011920929,
                    0.800000011920929,
                    1
                ],
                "metallicFactor" : 0,
                "roughnessFactor" : 0.5
            }
        },
        {
            "doubleSided" : true,
            "name" : "Midsole",
            "normalTexture" : {
                "index" : 3,
                "texCoord" : 0
            },
            "pbrMetallicRoughness" : {
                "baseColorFactor" : [
                    0.800000011920929,
                    0.800000011920929,
                    0.800000011920929,
                    1
                ],
                "metallicFactor" : 0,
                "roughnessFactor" : 0.5
            }
        },
        {
            "doubleSided" : true,
            "name" : "Outsole",
            "normalTexture" : {
                "index" : 4,
                "texCoord" : 0
            },
            "pbrMetallicRoughness" : {
                "baseColorFactor" : [
                    0.800000011920929,
                    0.800000011920929,
                    0.800000011920929,
                    1
                ],
                "metallicFactor" : 0,
                "roughnessFactor" : 0.5
            }
        },
        {
            "doubleSided" : true,
            "name" : "Patch",
            "normalTexture" : {
                "index" : 5,
                "texCoord" : 0
            },
            "pbrMetallicRoughness" : {
                "baseColorFactor" : [
                    0.800000011920929,
                    0.800000011920929,
                    0.800000011920929,
                    1
                ],
                "metallicFactor" : 0,
                "roughnessFactor" : 0.5
            }
        },
        {
            "doubleSided" : true,
            "name" : "Holder",
            "normalTexture" : {
                "index" : 6,
                "texCoord" : 0
            },
            "pbrMetallicRoughness" : {
                "baseColorFactor" : [
                    0.800000011920929,
                    0.800000011920929,
                    0.800000011920929,
                    1
                ],
                "metallicFactor" : 0,
                "roughnessFactor" : 0.5
            }
        }
    ],
    "meshes" : [
        {
            "name" : "Sandals",
            "primitives" : [
                {
                    "attributes" : {
                        "POSITION" : 0,
                        "NORMAL" : 1,
                        "TEXCOORD_0" : 2,
                        "TEXCOORD_1" : 3,
                        "COLOR_0" : 4
                    },
                    "indices" : 5,
                    "material" : 0
                },
                {
                    "attributes" : {
                        "POSITION" : 6,
                        "NORMAL" : 7,
                        "TEXCOORD_0" : 8,
                        "TEXCOORD_1" : 9,
                        "COLOR_0" : 10
                    },
                    "indices" : 11,
                    "material" : 1
                },
                {
                    "attributes" : {
                        "POSITION" : 12,
                        "NORMAL" : 13,
                        "TEXCOORD_0" : 14,
                        "TEXCOORD_1" : 15,
                        "COLOR_0" : 16
                    },
                    "indices" : 17,
                    "material" : 2
                },
                {
                    "attributes" : {
                        "POSITION" : 18,
                        "NORMAL" : 19,
                        "TEXCOORD_0" : 20,
                        "TEXCOORD_1" : 21,
                        "COLOR_0" : 22
                    },
                    "indices" : 23,
                    "material" : 3
                },
                {
                    "attributes" : {
                        "POSITION" : 24,
                        "NORMAL" : 25,
                        "TEXCOORD_0" : 26,
                        "TEXCOORD_1" : 27,
                        "COLOR_0" : 28
                    },
                    "indices" : 29,
                    "material" : 4
                },
                {
                    "attributes" : {
                        "POSITION" : 30,
                        "NORMAL" : 31,
                        "TEXCOORD_0" : 32,
                        "TEXCOORD_1" : 33,
                        "COLOR_0" : 34
                    },
                    "indices" : 35,
                    "material" : 5
                },
                {
                    "attributes" : {
                        "POSITION" : 36,
                        "NORMAL" : 37,
                        "TEXCOORD_0" : 38,
                        "TEXCOORD_1" : 39,
                        "COLOR_0" : 40
                    },
                    "indices" : 41,
                    "material" : 6
                }
            ]
        }
    ],
    "textures" : [
        {
            "sampler" : 0,
            "source" : 0
        },
        {
            "sampler" : 0,
            "source" : 0
        },
        {
            "sampler" : 0,
            "source" : 0
        },
        {
            "sampler" : 0,
            "source" : 0
        },
        {
            "sampler" : 0,
            "source" : 0
        },
        {
            "sampler" : 0,
            "source" : 0
        },
        {
            "sampler" : 0,
            "source" : 0
        }
    ],
    "images" : [
        {
            "mimeType" : "image/png",
            "name" : "normal",
            "uri" : "normal.png"
        }
    ],
    "accessors" : [
        {
            "bufferView" : 0,
            "componentType" : 5126,
            "count" : 73,
            "max" : [
                0.9020281434059143,
                -0.13589143753051758,
                2.29502010345459
            ],
            "min" : [
                -0.9942688941955566,
                -0.7834575176239014,
                -1.7090480327606201
            ],
            "type" : "VEC3"
        },
        {
            "bufferView" : 1,
            "componentType" : 5126,
            "count" : 73,
            "type" : "VEC3"
        },
        {
            "bufferView" : 2,
            "componentType" : 5126,
            "count" : 73,
            "type" : "VEC2"
        },
        {
            "bufferView" : 3,
            "componentType" : 5126,
            "count" : 73,
            "type" : "VEC2"
        },
        {
            "bufferView" : 4,
            "componentType" : 5123,
            "count" : 73,
            "normalized" : true,
            "type" : "VEC4"
        },
        {
            "bufferView" : 5,
            "componentType" : 5123,
            "count" : 348,
            "type" : "SCALAR"
        },
        {
            "bufferView" : 6,
            "componentType" : 5126,
            "count" : 459,
            "max" : [
                0.7059939503669739,
                0.997672438621521,
                1.4783200025558472
            ],
            "min" : [
                -0.8135936856269836,
                -0.7972025871276855,
                -1.356199026107788
            ],
            "type" : "VEC3"
        },
        {
            "bufferView" : 7,
            "componentType" : 5126,
            "count" : 459,
            "type" : "VEC3"
        },
        {
            "bufferView" : 8,
            "componentType" : 5126,
            "count" : 459,
            "type" : "VEC2"
        },
        {
            "bufferView" : 9,
            "componentType" : 5126,
            "count" : 459,
            "type" : "VEC2"
        },
        {
            "bufferView" : 10,
            "componentType" : 5123,
            "count" : 459,
            "normalized" : true,
            "type" : "VEC4"
        },
        {
            "bufferView" : 11,
            "componentType" : 5123,
            "count" : 1140,
            "type" : "SCALAR"
        },
        {
            "bufferView" : 12,
            "componentType" : 5126,
            "count" : 41,
            "max" : [
                0.14701542258262634,
                1.3477191925048828,
                -1.0593374967575073
            ],
            "min" : [
                -0.38343167304992676,
                0.5797514915466309,
                -1.6782909631729126
            ],
            "type" : "VEC3"
        },
        {
            "bufferView" : 13,
            "componentType" : 5126,
            "count" : 41,
            "type" : "VEC3"
        },
        {
            "bufferView" : 14,
            "componentType" : 5126,
            "count" : 41,
            "type" : "VEC2"
        },
        {
            "bufferView" : 15,
            "componentType" : 5126,
            "count" : 41,
            "type" : "VEC2"
        },
        {
            "bufferView" : 16,
            "componentType" : 5123,
            "count" : 41,
            "normalized" : true,
            "type" : "VEC4"
        },
        {
            "bufferView" : 17,
            "componentType" : 5123,
            "count" : 96,
            "type" : "SCALAR"
        },
        {
            "bufferView" : 18,
            "componentType" : 5126,
            "count" : 88,
            "max" : [
                0.9020281434059143,
                -0.23563361167907715,
                2.3481221199035645
            ],
            "min" : [
                -0.9942688941955566,
                -1.1534855365753174,
                -1.7654889822006226
            ],
            "type" : "VEC3"
        },
        {
            "bufferView" : 19,
            "componentType" : 5126,
            "count" : 88,
            "type" : "VEC3"
        },
        {
            "bufferView" : 20,
            "componentType" : 5126,
            "count" : 88,
            "type" : "VEC2"
        },
        {
            "bufferView" : 21,
            "componentType" : 5126,
            "count" : 88,
            "type" : "VEC2"
        },
        {
            "bufferView" : 22,
            "componentType" : 5123,
            "count" : 88,
            "normalized" : true,
            "type" : "VEC4"
        },
        {
            "bufferView" : 23,
            "componentType" : 5123,
            "count" : 294,
            "type" : "SCALAR"
        },
        {
            "bufferView" : 24,
            "componentType" : 5126,
            "count" : 24,
            "max" : [
                0.8396505117416382,
                -0.7497074604034424,
                2.2902231216430664
            ],
            "min" : [
                -0.9088029861450195,
                -1.1534855365753174,
                -1.401939034461975
            ],
            "type" : "VEC3"
        },
        {
            "bufferView" : 25,
            "componentType" : 5126,
            "count" : 24,
            "type" : "VEC3"
        },
        {
            "bufferView" : 26,
            "componentType" : 5126,
            "count" : 24,
            "type" : "VEC2"
        },
        {
            "bufferView" : 27,
            "componentType" : 5126,
            "count" : 24,
            "type" : "VEC2"
        },
        {
            "bufferView" : 28,
            "componentType" : 5123,
            "count" : 24,
            "normalized" : true,
            "type" : "VEC4"
        },
        {
            "bufferView" : 29,
            "componentType" : 5123,
            "count" : 66,
            "type" : "SCALAR"
        },
        {
            "bufferView" : 30,
            "componentType" : 5126,
            "count" : 14,
            "max" : [
                0.722575843334198,
                0.5817174911499023,
                -0.106148362159729
            ],
            "min" : [
                0.5055734515190125,
                0.18196642398834229,
                -0.4130299687385559
            ],
            "type" : "VEC3"
        },
        {
            "bufferView" : 31,
            "componentType" : 5126,
            "count" : 14,
            "type" : "VEC3"
        },
        {
            "bufferView" : 32,
            "componentType" : 5126,
            "count" : 14,
            "type" : "VEC2"
        },
        {
            "bufferView" : 33,
            "componentType" : 5126,
            "count" : 14,
            "type" : "VEC2"
        },
        {
            "bufferView" : 34,
            "componentType" : 5123,
            "count" : 14,
            "normalized" : true,
            "type" : "VEC4"
        },
        {
            "bufferView" : 35,
            "componentType" : 5123,
            "count" : 36,
            "type" : "SCALAR"
        },
        {
            "bufferView" : 36,
            "componentType" : 5126,
            "count" : 171,
            "max" : [
                0.7823732495307922,
                0.6651175022125244,
                1.3680729866027832
            ],
            "min" : [
                -0.7762117981910706,
                -0.36725950241088867,
                -0.7322162985801697
            ],
            "type" : "VEC3"
        },
        {
            "bufferView" : 37,
            "componentType" : 5126,
            "count" : 171,
            "type" : "VEC3"
        },
        {
            "bufferView" : 38,
            "componentType" : 5126,
            "count" : 171,
            "type" : "VEC2"
        },
        {
            "bufferView" : 39,
            "componentType" : 5126,
            "count" : 171,
            "type" : "VEC2"
        },
        {
            "bufferView" : 40,
            "componentType" : 5123,
            "count" : 171,
            "normalized" : true,
            "type" : "VEC4"
        },
        {
            "bufferView" : 41,
            "componentType" : 5123,
            "count" : 702,
            "type" : "SCALAR"
        }
    ],
    "bufferViews" : [
        {
            "buffer" : 0,
            "byteLength" : 876,
            "byteOffset" : 0
        },
        {
            "buffer" : 0,
            "byteLength" : 876,
            "byteOffset" : 876
        },
        {
            "buffer" : 0,
            "byteLength" : 584,
            "byteOffset" : 1752
        },
        {
            "buffer" : 0,
            "byteLength" : 584,
            "byteOffset" : 2336
        },
        {
            "buffer" : 0,
            "byteLength" : 584,
            "byteOffset" : 2920
        },
        {
            "buffer" : 0,
            "byteLength" : 696,
            "byteOffset" : 3504
        },
        {
            "buffer" : 0,
            "byteLength" : 5508,
            "byteOffset" : 4200
        },
        {
            "buffer" : 0,
            "byteLength" : 5508,
            "byteOffset" : 9708
        },
        {
            "buffer" : 0,
            "byteLength" : 3672,
            "byteOffset" : 15216
        },
        {
            "buffer" : 0,
            "byteLength" : 3672,
            "byteOffset" : 18888
        },
        {
            "buffer" : 0,
            "byteLength" : 3672,
            "byteOffset" : 22560
        },
        {
            "buffer" : 0,
            "byteLength" : 2280,
            "byteOffset" : 26232
        },
        {
            "buffer" : 0,
            "byteLength" : 492,
            "byteOffset" : 28512
        },
        {
            "buffer" : 0,
            "byteLength" : 492,
            "byteOffset" : 29004
        },
        {
            "buffer" : 0,
            "byteLength" : 328,
            "byteOffset" : 29496
        },
        {
            "buffer" : 0,
            "byteLength" : 328,
            "byteOffset" : 29824
        },
        {
            "buffer" : 0,
            "byteLength" : 328,
            "byteOffset" : 30152
        },
        {
            "buffer" : 0,
            "byteLength" : 192,
            "byteOffset" : 30480
        },
        {
            "buffer" : 0,
            "byteLength" : 1056,
            "byteOffset" : 30672
        },
        {
            "buffer" : 0,
            "byteLength" : 1056,
            "byteOffset" : 31728
        },
        {
            "buffer" : 0,
            "byteLength" : 704,
            "byteOffset" : 32784
        },
        {
            "buffer" : 0,
            "byteLength" : 704,
            "byteOffset" : 33488
        },
        {
            "buffer" : 0,
            "byteLength" : 704,
            "byteOffset" : 34192
        },
        {
            "buffer" : 0,
            "byteLength" : 588,
            "byteOffset" : 34896
        },
        {
            "buffer" : 0,
            "byteLength" : 288,
            "byteOffset" : 35484
        },
        {
            "buffer" : 0,
            "byteLength" : 288,
            "byteOffset" : 35772
        },
        {
            "buffer" : 0,
            "byteLength" : 192,
            "byteOffset" : 36060
        },
        {
            "buffer" : 0,
            "byteLength" : 192,
            "byteOffset" : 36252
        },
        {
            "buffer" : 0,
            "byteLength" : 192,
            "byteOffset" : 36444
        },
        {
            "buffer" : 0,
            "byteLength" : 132,
            "byteOffset" : 36636
        },
        {
            "buffer" : 0,
            "byteLength" : 168,
            "byteOffset" : 36768
        },
        {
            "buffer" : 0,
            "byteLength" : 168,
            "byteOffset" : 36936
        },
        {
            "buffer" : 0,
            "byteLength" : 112,
            "byteOffset" : 37104
        },
        {
            "buffer" : 0,
            "byteLength" : 112,
            "byteOffset" : 37216
        },
        {
            "buffer" : 0,
            "byteLength" : 112,
            "byteOffset" : 37328
        },
        {
            "buffer" : 0,
            "byteLength" : 72,
            "byteOffset" : 37440
        },
        {
            "buffer" : 0,
            "byteLength" : 2052,
            "byteOffset" : 37512
        },
        {
            "buffer" : 0,
            "byteLength" : 2052,
            "byteOffset" : 39564
        },
        {
            "buffer" : 0,
            "byteLength" : 1368,
            "byteOffset" : 41616
        },
        {
            "buffer" : 0,
            "byteLength" : 1368,
            "byteOffset" : 42984
        },
        {
            "buffer" : 0,
            "byteLength" : 1368,
            "byteOffset" : 44352
        },
        {
            "buffer" : 0,
            "byteLength" : 1404,
            "byteOffset" : 45720
        }
    ],
    "samplers" : [
        {
            "magFilter" : 9729,
            "minFilter" : 9986
        }
    ],
    "buffers" : [
        {
            "byteLength" : 47124,
            "uri" : "sandal.bin"
        }
    ]
}
