{
    "asset" : {
        "generator" : "Khronos glTF Blender I/O v1.4.40",
        "version" : "2.0"
    },
    "scene" : 0,
    "scenes" : [
        {
            "name" : "Scene",
            "nodes" : [
                0
            ]
        }
    ],
    "nodes" : [
        {
            "mesh" : 0,
            "name" : "Slipper",
            "rotation" : [
                0,
                0.6691719889640808,
                0,
                0.7431075572967529
            ],
            "scale" : [
                -0.5203675031661987,
                0.520367443561554,
                0.5203675031661987
            ],
            "translation" : [
                0.07765282690525055,
                -0.2890213429927826,
                -0.02850390039384365
            ]
        }
    ],
    "materials" : [
        {
            "doubleSided" : true,
            "name" : "Footbed",
            "normalTexture" : {
                "index" : 0,
                "texCoord" : 0
            },
            "pbrMetallicRoughness" : {
                "baseColorFactor" : [
                    0.800000011920929,
                    0.800000011920929,
                    0.800000011920929,
                    1
                ],
                "metallicFactor" : 0,
                "roughnessFactor" : 0.5
            }
        },
        {
            "doubleSided" : true,
            "name" : "Outsole",
            "normalTexture" : {
                "index" : 1,
                "texCoord" : 0
            },
            "pbrMetallicRoughness" : {
                "baseColorFactor" : [
                    0.800000011920929,
                    0.800000011920929,
                    0.800000011920929,
                    1
                ],
                "metallicFactor" : 0,
                "roughnessFactor" : 0.5
            }
        },
        {
            "doubleSided" : true,
            "name" : "Midsole",
            "normalTexture" : {
                "index" : 2,
                "texCoord" : 0
            },
            "pbrMetallicRoughness" : {
                "baseColorFactor" : [
                    0.800000011920929,
                    0.800000011920929,
                    0.800000011920929,
                    1
                ],
                "metallicFactor" : 0,
                "roughnessFactor" : 0.5
            }
        },
        {
            "doubleSided" : true,
            "name" : "Strap",
            "normalTexture" : {
                "index" : 3,
                "texCoord" : 0
            },
            "pbrMetallicRoughness" : {
                "baseColorFactor" : [
                    0.800000011920929,
                    0.800000011920929,
                    0.800000011920929,
                    1
                ],
                "metallicFactor" : 0,
                "roughnessFactor" : 0.5
            }
        }
    ],
    "meshes" : [
        {
            "name" : "Slipper",
            "primitives" : [
                {
                    "attributes" : {
                        "POSITION" : 0,
                        "NORMAL" : 1,
                        "TEXCOORD_0" : 2,
                        "COLOR_0" : 3
                    },
                    "indices" : 4,
                    "material" : 0
                },
                {
                    "attributes" : {
                        "POSITION" : 5,
                        "NORMAL" : 6,
                        "TEXCOORD_0" : 7,
                        "COLOR_0" : 8
                    },
                    "indices" : 9,
                    "material" : 1
                },
                {
                    "attributes" : {
                        "POSITION" : 10,
                        "NORMAL" : 11,
                        "TEXCOORD_0" : 12,
                        "COLOR_0" : 13
                    },
                    "indices" : 14,
                    "material" : 2
                },
                {
                    "attributes" : {
                        "POSITION" : 15,
                        "NORMAL" : 16,
                        "TEXCOORD_0" : 17,
                        "COLOR_0" : 18
                    },
                    "indices" : 19,
                    "material" : 3
                }
            ]
        }
    ],
    "textures" : [
        {
            "sampler" : 0,
            "source" : 0
        },
        {
            "sampler" : 0,
            "source" : 0
        },
        {
            "sampler" : 0,
            "source" : 0
        },
        {
            "sampler" : 0,
            "source" : 1
        }
    ],
    "images" : [
        {
            "mimeType" : "image/png",
            "name" : "normal",
            "uri" : "normal.png"
        },
        {
            "mimeType" : "image/png",
            "name" : "strap",
            "uri" : "strap.png"
        }
    ],
    "accessors" : [
        {
            "bufferView" : 0,
            "componentType" : 5126,
            "count" : 122,
            "max" : [
                0.8979969620704651,
                0.02023601531982422,
                1.757613182067871
            ],
            "min" : [
                -0.8990892171859741,
                -0.04403519630432129,
                -2.091585874557495
            ],
            "type" : "VEC3"
        },
        {
            "bufferView" : 1,
            "componentType" : 5126,
            "count" : 122,
            "type" : "VEC3"
        },
        {
            "bufferView" : 2,
            "componentType" : 5126,
            "count" : 122,
            "type" : "VEC2"
        },
        {
            "bufferView" : 3,
            "componentType" : 5123,
            "count" : 122,
            "normalized" : true,
            "type" : "VEC4"
        },
        {
            "bufferView" : 4,
            "componentType" : 5123,
            "count" : 498,
            "type" : "SCALAR"
        },
        {
            "bufferView" : 5,
            "componentType" : 5126,
            "count" : 63,
            "max" : [
                0.8447385430335999,
                -0.41806507110595703,
                1.7198694944381714
            ],
            "min" : [
                -0.8634072542190552,
                -0.41806602478027344,
                -2.055756092071533
            ],
            "type" : "VEC3"
        },
        {
            "bufferView" : 6,
            "componentType" : 5126,
            "count" : 63,
            "type" : "VEC3"
        },
        {
            "bufferView" : 7,
            "componentType" : 5126,
            "count" : 63,
            "type" : "VEC2"
        },
        {
            "bufferView" : 8,
            "componentType" : 5123,
            "count" : 63,
            "normalized" : true,
            "type" : "VEC4"
        },
        {
            "bufferView" : 9,
            "componentType" : 5123,
            "count" : 66,
            "type" : "SCALAR"
        },
        {
            "bufferView" : 10,
            "componentType" : 5126,
            "count" : 75,
            "max" : [
                0.8979719877243042,
                -0.0367131233215332,
                1.7575944662094116
            ],
            "min" : [
                -0.881819486618042,
                -0.41806602478027344,
                -2.0896170139312744
            ],
            "type" : "VEC3"
        },
        {
            "bufferView" : 11,
            "componentType" : 5126,
            "count" : 75,
            "type" : "VEC3"
        },
        {
            "bufferView" : 12,
            "componentType" : 5126,
            "count" : 75,
            "type" : "VEC2"
        },
        {
            "bufferView" : 13,
            "componentType" : 5123,
            "count" : 75,
            "normalized" : true,
            "type" : "VEC4"
        },
        {
            "bufferView" : 14,
            "componentType" : 5123,
            "count" : 288,
            "type" : "SCALAR"
        },
        {
            "bufferView" : 15,
            "componentType" : 5126,
            "count" : 483,
            "max" : [
                0.7317126989364624,
                0.5987680554389954,
                1.143390417098999
            ],
            "min" : [
                -0.791290819644928,
                -0.08927002549171448,
                -0.9690107107162476
            ],
            "type" : "VEC3"
        },
        {
            "bufferView" : 16,
            "componentType" : 5126,
            "count" : 483,
            "type" : "VEC3"
        },
        {
            "bufferView" : 17,
            "componentType" : 5126,
            "count" : 483,
            "type" : "VEC2"
        },
        {
            "bufferView" : 18,
            "componentType" : 5123,
            "count" : 483,
            "normalized" : true,
            "type" : "VEC4"
        },
        {
            "bufferView" : 19,
            "componentType" : 5123,
            "count" : 1734,
            "type" : "SCALAR"
        }
    ],
    "bufferViews" : [
        {
            "buffer" : 0,
            "byteLength" : 1464,
            "byteOffset" : 0
        },
        {
            "buffer" : 0,
            "byteLength" : 1464,
            "byteOffset" : 1464
        },
        {
            "buffer" : 0,
            "byteLength" : 976,
            "byteOffset" : 2928
        },
        {
            "buffer" : 0,
            "byteLength" : 976,
            "byteOffset" : 3904
        },
        {
            "buffer" : 0,
            "byteLength" : 996,
            "byteOffset" : 4880
        },
        {
            "buffer" : 0,
            "byteLength" : 756,
            "byteOffset" : 5876
        },
        {
            "buffer" : 0,
            "byteLength" : 756,
            "byteOffset" : 6632
        },
        {
            "buffer" : 0,
            "byteLength" : 504,
            "byteOffset" : 7388
        },
        {
            "buffer" : 0,
            "byteLength" : 504,
            "byteOffset" : 7892
        },
        {
            "buffer" : 0,
            "byteLength" : 132,
            "byteOffset" : 8396
        },
        {
            "buffer" : 0,
            "byteLength" : 900,
            "byteOffset" : 8528
        },
        {
            "buffer" : 0,
            "byteLength" : 900,
            "byteOffset" : 9428
        },
        {
            "buffer" : 0,
            "byteLength" : 600,
            "byteOffset" : 10328
        },
        {
            "buffer" : 0,
            "byteLength" : 600,
            "byteOffset" : 10928
        },
        {
            "buffer" : 0,
            "byteLength" : 576,
            "byteOffset" : 11528
        },
        {
            "buffer" : 0,
            "byteLength" : 5796,
            "byteOffset" : 12104
        },
        {
            "buffer" : 0,
            "byteLength" : 5796,
            "byteOffset" : 17900
        },
        {
            "buffer" : 0,
            "byteLength" : 3864,
            "byteOffset" : 23696
        },
        {
            "buffer" : 0,
            "byteLength" : 3864,
            "byteOffset" : 27560
        },
        {
            "buffer" : 0,
            "byteLength" : 3468,
            "byteOffset" : 31424
        }
    ],
    "samplers" : [
        {
            "magFilter" : 9729,
            "minFilter" : 9986
        }
    ],
    "buffers" : [
        {
            "byteLength" : 34892,
            "uri" : "Slipper.bin"
        }
    ]
}
