{
    "asset" : {
        "generator" : "Khronos glTF Blender I/O v1.4.40",
        "version" : "2.0"
    },
    "scene" : 0,
    "scenes" : [
        {
            "name" : "Scene",
            "nodes" : [
                0
            ]
        }
    ],
    "nodes" : [
        {
            "mesh" : 0,
            "name" : "Truffle",
            "rotation" : [
                0,
                0.7109825611114502,
                0,
                0.703209638595581
            ],
            "scale" : [
                0.486670583486557,
                0.48667070269584656,
                0.486670583486557
            ],
            "translation" : [
                -0.05827441066503525,
                -0.013342568650841713,
                0
            ]
        }
    ],
    "materials" : [
        {
            "doubleSided" : true,
            "name" : "Main",
            "normalTexture" : {
                "index" : 0,
                "texCoord" : 0
            },
            "pbrMetallicRoughness" : {
                "baseColorFactor" : [
                    0.800000011920929,
                    0.800000011920929,
                    0.800000011920929,
                    1
                ],
                "metallicFactor" : 0,
                "roughnessFactor" : 0.5
            }
        },
        {
            "doubleSided" : true,
            "name" : "Laces",
            "normalTexture" : {
                "index" : 1,
                "texCoord" : 0
            },
            "pbrMetallicRoughness" : {
                "baseColorFactor" : [
                    0.800000011920929,
                    0.800000011920929,
                    0.800000011920929,
                    1
                ],
                "metallicFactor" : 0,
                "roughnessFactor" : 0.5
            }
        },
        {
            "doubleSided" : true,
            "name" : "Outsole",
            "normalTexture" : {
                "index" : 2,
                "texCoord" : 0
            },
            "pbrMetallicRoughness" : {
                "baseColorFactor" : [
                    0.800000011920929,
                    0.800000011920929,
                    0.800000011920929,
                    1
                ],
                "metallicFactor" : 0,
                "roughnessFactor" : 0.5
            }
        },
        {
            "doubleSided" : true,
            "name" : "Toecap",
            "normalTexture" : {
                "index" : 3,
                "texCoord" : 0
            },
            "pbrMetallicRoughness" : {
                "baseColorFactor" : [
                    0.800000011920929,
                    0.800000011920929,
                    0.800000011920929,
                    1
                ],
                "metallicFactor" : 0,
                "roughnessFactor" : 0.5
            }
        },
        {
            "doubleSided" : true,
            "name" : "Vamp",
            "normalTexture" : {
                "index" : 4,
                "texCoord" : 0
            },
            "pbrMetallicRoughness" : {
                "baseColorFactor" : [
                    0.800000011920929,
                    0.800000011920929,
                    0.800000011920929,
                    1
                ],
                "metallicFactor" : 0,
                "roughnessFactor" : 0.5
            }
        },
        {
            "doubleSided" : true,
            "name" : "Midsole",
            "normalTexture" : {
                "index" : 5,
                "texCoord" : 0
            },
            "pbrMetallicRoughness" : {
                "baseColorFactor" : [
                    0.800000011920929,
                    0.800000011920929,
                    0.800000011920929,
                    1
                ],
                "metallicFactor" : 0,
                "roughnessFactor" : 0.5
            }
        },
        {
            "doubleSided" : true,
            "name" : "Patch",
            "normalTexture" : {
                "index" : 6,
                "texCoord" : 0
            },
            "pbrMetallicRoughness" : {
                "baseColorFactor" : [
                    0.800000011920929,
                    0.800000011920929,
                    0.800000011920929,
                    1
                ],
                "metallicFactor" : 0,
                "roughnessFactor" : 0.5
            }
        },
        {
            "doubleSided" : true,
            "name" : "Heelcap",
            "normalTexture" : {
                "index" : 7,
                "texCoord" : 0
            },
            "pbrMetallicRoughness" : {
                "baseColorFactor" : [
                    0.800000011920929,
                    0.800000011920929,
                    0.800000011920929,
                    1
                ],
                "metallicFactor" : 0,
                "roughnessFactor" : 0.5
            }
        }
    ],
    "meshes" : [
        {
            "name" : "Truffle",
            "primitives" : [
                {
                    "attributes" : {
                        "POSITION" : 0,
                        "NORMAL" : 1,
                        "TEXCOORD_0" : 2,
                        "TEXCOORD_1" : 3,
                        "COLOR_0" : 4
                    },
                    "indices" : 5,
                    "material" : 0
                },
                {
                    "attributes" : {
                        "POSITION" : 6,
                        "NORMAL" : 7,
                        "TEXCOORD_0" : 8,
                        "TEXCOORD_1" : 9,
                        "COLOR_0" : 10
                    },
                    "indices" : 11,
                    "material" : 1
                },
                {
                    "attributes" : {
                        "POSITION" : 12,
                        "NORMAL" : 13,
                        "TEXCOORD_0" : 14,
                        "TEXCOORD_1" : 15,
                        "COLOR_0" : 16
                    },
                    "indices" : 17,
                    "material" : 2
                },
                {
                    "attributes" : {
                        "POSITION" : 18,
                        "NORMAL" : 19,
                        "TEXCOORD_0" : 20,
                        "TEXCOORD_1" : 21,
                        "COLOR_0" : 22
                    },
                    "indices" : 23,
                    "material" : 3
                },
                {
                    "attributes" : {
                        "POSITION" : 24,
                        "NORMAL" : 25,
                        "TEXCOORD_0" : 26,
                        "TEXCOORD_1" : 27,
                        "COLOR_0" : 28
                    },
                    "indices" : 29,
                    "material" : 4
                },
                {
                    "attributes" : {
                        "POSITION" : 30,
                        "NORMAL" : 31,
                        "TEXCOORD_0" : 32,
                        "TEXCOORD_1" : 33,
                        "COLOR_0" : 34
                    },
                    "indices" : 35,
                    "material" : 5
                },
                {
                    "attributes" : {
                        "POSITION" : 36,
                        "NORMAL" : 37,
                        "TEXCOORD_0" : 38,
                        "TEXCOORD_1" : 39,
                        "COLOR_0" : 40
                    },
                    "indices" : 41,
                    "material" : 6
                },
                {
                    "attributes" : {
                        "POSITION" : 42,
                        "NORMAL" : 43,
                        "TEXCOORD_0" : 44,
                        "TEXCOORD_1" : 45,
                        "COLOR_0" : 46
                    },
                    "indices" : 47,
                    "material" : 7
                }
            ]
        }
    ],
    "textures" : [
        {
            "sampler" : 0,
            "source" : 0
        },
        {
            "sampler" : 0,
            "source" : 0
        },
        {
            "sampler" : 0,
            "source" : 0
        },
        {
            "sampler" : 0,
            "source" : 0
        },
        {
            "sampler" : 0,
            "source" : 0
        },
        {
            "sampler" : 0,
            "source" : 0
        },
        {
            "sampler" : 0,
            "source" : 0
        },
        {
            "sampler" : 0,
            "source" : 0
        }
    ],
    "images" : [
        {
            "mimeType" : "image/png",
            "name" : "normal",
            "uri" : "normal.png"
        }
    ],
    "accessors" : [
        {
            "bufferView" : 0,
            "componentType" : 5126,
            "count" : 89,
            "max" : [
                0.7437399625778198,
                0.8062378764152527,
                1.5600461959838867
            ],
            "min" : [
                -0.6268278360366821,
                -0.5381702184677124,
                -1.7441959381103516
            ],
            "type" : "VEC3"
        },
        {
            "bufferView" : 1,
            "componentType" : 5126,
            "count" : 89,
            "type" : "VEC3"
        },
        {
            "bufferView" : 2,
            "componentType" : 5126,
            "count" : 89,
            "type" : "VEC2"
        },
        {
            "bufferView" : 3,
            "componentType" : 5126,
            "count" : 89,
            "type" : "VEC2"
        },
        {
            "bufferView" : 4,
            "componentType" : 5123,
            "count" : 89,
            "normalized" : true,
            "type" : "VEC4"
        },
        {
            "bufferView" : 5,
            "componentType" : 5123,
            "count" : 360,
            "type" : "SCALAR"
        },
        {
            "bufferView" : 6,
            "componentType" : 5126,
            "count" : 408,
            "max" : [
                0.7834926843643188,
                0.5058107376098633,
                1.198744297027588
            ],
            "min" : [
                -0.7906385660171509,
                -0.3830410838127136,
                -0.4232383668422699
            ],
            "type" : "VEC3"
        },
        {
            "bufferView" : 7,
            "componentType" : 5126,
            "count" : 408,
            "type" : "VEC3"
        },
        {
            "bufferView" : 8,
            "componentType" : 5126,
            "count" : 408,
            "type" : "VEC2"
        },
        {
            "bufferView" : 9,
            "componentType" : 5126,
            "count" : 408,
            "type" : "VEC2"
        },
        {
            "bufferView" : 10,
            "componentType" : 5123,
            "count" : 408,
            "normalized" : true,
            "type" : "VEC4"
        },
        {
            "bufferView" : 11,
            "componentType" : 5123,
            "count" : 1455,
            "type" : "SCALAR"
        },
        {
            "bufferView" : 12,
            "componentType" : 5126,
            "count" : 43,
            "max" : [
                0.8040705323219299,
                -0.7708151936531067,
                2.170159339904785
            ],
            "min" : [
                -0.6298424601554871,
                -1.000143051147461,
                -1.8289318084716797
            ],
            "type" : "VEC3"
        },
        {
            "bufferView" : 13,
            "componentType" : 5126,
            "count" : 43,
            "type" : "VEC3"
        },
        {
            "bufferView" : 14,
            "componentType" : 5126,
            "count" : 43,
            "type" : "VEC2"
        },
        {
            "bufferView" : 15,
            "componentType" : 5126,
            "count" : 43,
            "type" : "VEC2"
        },
        {
            "bufferView" : 16,
            "componentType" : 5123,
            "count" : 43,
            "normalized" : true,
            "type" : "VEC4"
        },
        {
            "bufferView" : 17,
            "componentType" : 5123,
            "count" : 72,
            "type" : "SCALAR"
        },
        {
            "bufferView" : 18,
            "componentType" : 5126,
            "count" : 15,
            "max" : [
                0.5881326794624329,
                -0.2845711410045624,
                2.0566112995147705
            ],
            "min" : [
                -0.5702988505363464,
                -0.4611991345882416,
                1.5471503734588623
            ],
            "type" : "VEC3"
        },
        {
            "bufferView" : 19,
            "componentType" : 5126,
            "count" : 15,
            "type" : "VEC3"
        },
        {
            "bufferView" : 20,
            "componentType" : 5126,
            "count" : 15,
            "type" : "VEC2"
        },
        {
            "bufferView" : 21,
            "componentType" : 5126,
            "count" : 15,
            "type" : "VEC2"
        },
        {
            "bufferView" : 22,
            "componentType" : 5123,
            "count" : 15,
            "normalized" : true,
            "type" : "VEC4"
        },
        {
            "bufferView" : 23,
            "componentType" : 5123,
            "count" : 48,
            "type" : "SCALAR"
        },
        {
            "bufferView" : 24,
            "componentType" : 5126,
            "count" : 45,
            "max" : [
                0.5881326794624329,
                0.7902421355247498,
                1.5600461959838867
            ],
            "min" : [
                -0.5702988505363464,
                -0.4611991345882416,
                -0.703959584236145
            ],
            "type" : "VEC3"
        },
        {
            "bufferView" : 25,
            "componentType" : 5126,
            "count" : 45,
            "type" : "VEC3"
        },
        {
            "bufferView" : 26,
            "componentType" : 5126,
            "count" : 45,
            "type" : "VEC2"
        },
        {
            "bufferView" : 27,
            "componentType" : 5126,
            "count" : 45,
            "type" : "VEC2"
        },
        {
            "bufferView" : 28,
            "componentType" : 5123,
            "count" : 45,
            "normalized" : true,
            "type" : "VEC4"
        },
        {
            "bufferView" : 29,
            "componentType" : 5123,
            "count" : 150,
            "type" : "SCALAR"
        },
        {
            "bufferView" : 30,
            "componentType" : 5126,
            "count" : 81,
            "max" : [
                0.8208752870559692,
                -0.35632213950157166,
                2.170159339904785
            ],
            "min" : [
                -0.6634759306907654,
                -1.000143051147461,
                -1.857433557510376
            ],
            "type" : "VEC3"
        },
        {
            "bufferView" : 31,
            "componentType" : 5126,
            "count" : 81,
            "type" : "VEC3"
        },
        {
            "bufferView" : 32,
            "componentType" : 5126,
            "count" : 81,
            "type" : "VEC2"
        },
        {
            "bufferView" : 33,
            "componentType" : 5126,
            "count" : 81,
            "type" : "VEC2"
        },
        {
            "bufferView" : 34,
            "componentType" : 5123,
            "count" : 81,
            "normalized" : true,
            "type" : "VEC4"
        },
        {
            "bufferView" : 35,
            "componentType" : 5123,
            "count" : 312,
            "type" : "SCALAR"
        },
        {
            "bufferView" : 36,
            "componentType" : 5126,
            "count" : 12,
            "max" : [
                0.17464321851730347,
                0.7902421355247498,
                -0.35196179151535034
            ],
            "min" : [
                -0.14726248383522034,
                0.5289087891578674,
                -0.5206672549247742
            ],
            "type" : "VEC3"
        },
        {
            "bufferView" : 37,
            "componentType" : 5126,
            "count" : 12,
            "type" : "VEC3"
        },
        {
            "bufferView" : 38,
            "componentType" : 5126,
            "count" : 12,
            "type" : "VEC2"
        },
        {
            "bufferView" : 39,
            "componentType" : 5126,
            "count" : 12,
            "type" : "VEC2"
        },
        {
            "bufferView" : 40,
            "componentType" : 5123,
            "count" : 12,
            "normalized" : true,
            "type" : "VEC4"
        },
        {
            "bufferView" : 41,
            "componentType" : 5123,
            "count" : 36,
            "type" : "SCALAR"
        },
        {
            "bufferView" : 42,
            "componentType" : 5126,
            "count" : 18,
            "max" : [
                0.2603650391101837,
                0.8368015885353088,
                -1.3784031867980957
            ],
            "min" : [
                -0.2985314726829529,
                -0.5303661227226257,
                -1.844565749168396
            ],
            "type" : "VEC3"
        },
        {
            "bufferView" : 43,
            "componentType" : 5126,
            "count" : 18,
            "type" : "VEC3"
        },
        {
            "bufferView" : 44,
            "componentType" : 5126,
            "count" : 18,
            "type" : "VEC2"
        },
        {
            "bufferView" : 45,
            "componentType" : 5126,
            "count" : 18,
            "type" : "VEC2"
        },
        {
            "bufferView" : 46,
            "componentType" : 5123,
            "count" : 18,
            "normalized" : true,
            "type" : "VEC4"
        },
        {
            "bufferView" : 47,
            "componentType" : 5123,
            "count" : 60,
            "type" : "SCALAR"
        }
    ],
    "bufferViews" : [
        {
            "buffer" : 0,
            "byteLength" : 1068,
            "byteOffset" : 0
        },
        {
            "buffer" : 0,
            "byteLength" : 1068,
            "byteOffset" : 1068
        },
        {
            "buffer" : 0,
            "byteLength" : 712,
            "byteOffset" : 2136
        },
        {
            "buffer" : 0,
            "byteLength" : 712,
            "byteOffset" : 2848
        },
        {
            "buffer" : 0,
            "byteLength" : 712,
            "byteOffset" : 3560
        },
        {
            "buffer" : 0,
            "byteLength" : 720,
            "byteOffset" : 4272
        },
        {
            "buffer" : 0,
            "byteLength" : 4896,
            "byteOffset" : 4992
        },
        {
            "buffer" : 0,
            "byteLength" : 4896,
            "byteOffset" : 9888
        },
        {
            "buffer" : 0,
            "byteLength" : 3264,
            "byteOffset" : 14784
        },
        {
            "buffer" : 0,
            "byteLength" : 3264,
            "byteOffset" : 18048
        },
        {
            "buffer" : 0,
            "byteLength" : 3264,
            "byteOffset" : 21312
        },
        {
            "buffer" : 0,
            "byteLength" : 2910,
            "byteOffset" : 24576
        },
        {
            "buffer" : 0,
            "byteLength" : 516,
            "byteOffset" : 27488
        },
        {
            "buffer" : 0,
            "byteLength" : 516,
            "byteOffset" : 28004
        },
        {
            "buffer" : 0,
            "byteLength" : 344,
            "byteOffset" : 28520
        },
        {
            "buffer" : 0,
            "byteLength" : 344,
            "byteOffset" : 28864
        },
        {
            "buffer" : 0,
            "byteLength" : 344,
            "byteOffset" : 29208
        },
        {
            "buffer" : 0,
            "byteLength" : 144,
            "byteOffset" : 29552
        },
        {
            "buffer" : 0,
            "byteLength" : 180,
            "byteOffset" : 29696
        },
        {
            "buffer" : 0,
            "byteLength" : 180,
            "byteOffset" : 29876
        },
        {
            "buffer" : 0,
            "byteLength" : 120,
            "byteOffset" : 30056
        },
        {
            "buffer" : 0,
            "byteLength" : 120,
            "byteOffset" : 30176
        },
        {
            "buffer" : 0,
            "byteLength" : 120,
            "byteOffset" : 30296
        },
        {
            "buffer" : 0,
            "byteLength" : 96,
            "byteOffset" : 30416
        },
        {
            "buffer" : 0,
            "byteLength" : 540,
            "byteOffset" : 30512
        },
        {
            "buffer" : 0,
            "byteLength" : 540,
            "byteOffset" : 31052
        },
        {
            "buffer" : 0,
            "byteLength" : 360,
            "byteOffset" : 31592
        },
        {
            "buffer" : 0,
            "byteLength" : 360,
            "byteOffset" : 31952
        },
        {
            "buffer" : 0,
            "byteLength" : 360,
            "byteOffset" : 32312
        },
        {
            "buffer" : 0,
            "byteLength" : 300,
            "byteOffset" : 32672
        },
        {
            "buffer" : 0,
            "byteLength" : 972,
            "byteOffset" : 32972
        },
        {
            "buffer" : 0,
            "byteLength" : 972,
            "byteOffset" : 33944
        },
        {
            "buffer" : 0,
            "byteLength" : 648,
            "byteOffset" : 34916
        },
        {
            "buffer" : 0,
            "byteLength" : 648,
            "byteOffset" : 35564
        },
        {
            "buffer" : 0,
            "byteLength" : 648,
            "byteOffset" : 36212
        },
        {
            "buffer" : 0,
            "byteLength" : 624,
            "byteOffset" : 36860
        },
        {
            "buffer" : 0,
            "byteLength" : 144,
            "byteOffset" : 37484
        },
        {
            "buffer" : 0,
            "byteLength" : 144,
            "byteOffset" : 37628
        },
        {
            "buffer" : 0,
            "byteLength" : 96,
            "byteOffset" : 37772
        },
        {
            "buffer" : 0,
            "byteLength" : 96,
            "byteOffset" : 37868
        },
        {
            "buffer" : 0,
            "byteLength" : 96,
            "byteOffset" : 37964
        },
        {
            "buffer" : 0,
            "byteLength" : 72,
            "byteOffset" : 38060
        },
        {
            "buffer" : 0,
            "byteLength" : 216,
            "byteOffset" : 38132
        },
        {
            "buffer" : 0,
            "byteLength" : 216,
            "byteOffset" : 38348
        },
        {
            "buffer" : 0,
            "byteLength" : 144,
            "byteOffset" : 38564
        },
        {
            "buffer" : 0,
            "byteLength" : 144,
            "byteOffset" : 38708
        },
        {
            "buffer" : 0,
            "byteLength" : 144,
            "byteOffset" : 38852
        },
        {
            "buffer" : 0,
            "byteLength" : 120,
            "byteOffset" : 38996
        }
    ],
    "samplers" : [
        {
            "magFilter" : 9729,
            "minFilter" : 9986
        }
    ],
    "buffers" : [
        {
            "byteLength" : 39116,
            "uri" : "truffle.bin"
        }
    ]
}
